<svg xmlns="http://www.w3.org/2000/svg" xmlns:xlink="http://www.w3.org/1999/xlink" version="1.1" style="enable-background:new 0 0 512 512;" xml:space="preserve" width="44" height="44"><rect id="backgroundrect" width="100%" height="100%" x="0" y="0" fill="none" stroke="none" class="" style=""/>

























<g class="currentLayer" style=""><title>Layer 1</title><g class="" id="svg_28"><polygon style="fill:#E2AE83;" points="21.893310593954673,5.987821777073975 5.945327362813651,14.608351651046917 5.943601971034007,14.607575704263752 5.9427405829196625,14.608351651046917 0.6465468196057573,9.269135943367473 16.553147184979387,0.6476584770799789 " id="svg_1" class=""/><polygon style="fill:#D39C72;" points="43.14007093539296,9.269135943367473 37.843880169064526,14.608351651046917 37.84301529354891,14.607575704263752 37.84129251732022,14.608351651046917 21.893310593954673,5.987821777073975 27.23347400292996,0.6476584770799789 " id="svg_2" class=""/><polygon style="fill:#F2C397;" points="21.893310593954673,23.229053279532536 21.893310593954673,43.49613808655977 5.943601971034007,34.8746613831413 5.943601971034007,14.608351651046917 " id="svg_3" class=""/><polygon style="fill:#E2AE83;" points="37.84301529354891,14.608351651046917 37.84301529354891,34.8746613831413 21.893310593954673,43.49613808655977 21.893310593954673,23.229053279532536 " id="svg_4" class=""/><polygon style="fill:#D39C72;" points="35.256346996401156,16.006352302166533 35.256346996401156,36.27292097380541 37.84301529354891,34.8746613831413 37.84301529354891,14.608351651046917 " id="svg_5" class=""/><g id="svg_6" class="">
	<polygon style="fill:#F2C397;" points="37.843880169064526,14.608351651046917 43.14007093539296,19.947654543758176 37.84301529354891,22.818662872569575 27.23347400292996,28.569216688507822 21.893310593954673,23.229053279532536 37.84129251732022,14.608351651046917 37.84301529354891,14.609300224193078 " id="svg_7"/>
	<polygon style="fill:#F2C397;" points="37.843880169064526,14.608351651046917 43.14007093539296,19.947654543758176 37.84301529354891,22.818662872569575 27.23347400292996,28.569216688507822 21.893310593954673,23.229053279532536 37.84129251732022,14.608351651046917 37.84301529354891,14.609300224193078 " id="svg_8"/>
</g><polygon style="fill:#E2AE83;" points="35.60750738014942,15.815812902533366 40.906114915559805,21.158476778221143 43.14007093539296,19.947654543758176 37.843880169064526,14.608351651046917 37.84301529354891,14.609300224193078 37.84129251732022,14.608351651046917 " id="svg_9" class=""/><polygon style="fill:#FFD2A6;" points="21.893310593954673,23.229053279532536 16.553147184979387,28.569216688507822 5.943601971034007,22.818662872569575 0.6465468196057573,19.947654543758176 5.9427405829196625,14.608351651046917 5.943601971034007,14.609300224193078 5.945327362813651,14.608351651046917 " id="svg_10" class=""/><polygon style="fill:#C48D69;" points="37.84129251732022,14.608351651046917 21.893310593954673,23.229053279532536 5.945327362813651,14.608351651046917 21.893310593954673,5.987821777073975 " id="svg_11" class=""/><path d="M38.754326689469764,14.608437792814469 l4.844763867183019,-4.8840785918539815 c0.1433780419469571,-0.14467128946902827 0.2102820470887723,-0.348314665944502 0.18062357058260692,-0.5497164133817188 c-0.029744693007636953,-0.20148796393868845 -0.15260320760439822,-0.3771971939374247 -0.3315886646590482,-0.47419075809276245 L27.54152580710683,0.07897431534781288 c-0.2516659677950498,-0.13630828882630133 -0.5629937546083164,-0.09121705855675324 -0.7653438835617191,0.11121928689812074 l-4.883216426839269,4.883216426839269 L17.010093935872458,0.19053846825181908 c-0.12156526707469006,-0.12242743208940417 -0.2845144548556576,-0.19053846825181908 -0.4560852927837662,-0.19053846825181908 c-0.10777062683926424,0 -0.2138169236491002,0.027503063969380237 -0.3086550752676529,0.07931918135369852 l-5.109103660694365,2.7682394292440757 c-0.1517410425896841,0.08276784141255496 -0.26209816447309064,0.2189899137373849 -0.3112415703117951,0.38452559656249474 c-0.049143405838704475,0.16553568282510991 -0.031037940529708114,0.34055518081207503 0.050867735868132716,0.49229622340175855 c0.11380578194226301,0.20864393356081554 0.3319335306649338,0.33891706728411825 0.5690289097113153,0.33891706728411825 c0.10690846182455009,0 0.2138169236491002,-0.027589280470851657 0.30779291025293853,-0.07845701633898441 l4.684056308440308,-2.538989751831593 l4.385747213349225,4.385747213349225 L6.061719063522343,13.809900556186255 l-4.348674117716517,-4.384109099821267 l7.765347854527079,-4.208917168831359 c0.15260320760439822,-0.08190567639784083 0.26296032948780473,-0.2181277487226709 0.3121037353265093,-0.38366343154778065 c0.049143405838704475,-0.16553568282510991 0.031037940529708114,-0.34055518081207503 -0.051729900882846847,-0.49229622340175855 c-0.11294361692754891,-0.20864393356081554 -0.3310713656502195,-0.33883085078264674 -0.568166744696601,-0.33883085078264674 c-0.10690846182455009,0 -0.21295475863438612,0.027503063969380237 -0.30779291025293853,0.07837079983751301 l-8.524053067475498,4.620342313852935 c-0.17846815804582164,0.09561410013179525 -0.30261992016465394,0.2733063096643742 -0.3319335306649338,0.47419075809276245 c-0.02931361050027988,0.199936066912203 0.03802147714889244,0.405131340414162 0.18105465308996402,0.5491991143728907 l4.8442465681741895,4.884423457859867 L0.18753016877067505,19.492602601169924 c-0.1433780419469571,0.14467128946902827 -0.2102820470887723,0.348314665944502 -0.18062357058260692,0.5497164133817188 c0.029744693007636953,0.20148796393868845 0.15260320760439822,0.3771971939374247 0.3315886646590482,0.47419075809276245 l4.95856964912528,2.687540783866835 v11.668886175146698 c-0.00008621650147141148,0.022330073881095557 0.0010345980176569367,0.044573931260719714 0.0032762270559136336,0.06655913913592962 c0.000948381516185526,0.009397598660383848 0.002758928047085166,0.018536547816353447 0.004052175569156337,0.027847929975265886 c0.0016381135279568172,0.011294361692754894 0.0029313610500279873,0.022588723385509782 0.005172990088284685,0.03371065207532185 c0.002758928047085166,0.014053289739840063 0.00655245411182727,0.027675496972323056 0.010173547173626547,0.041383920706277486 c0.0017243300294282283,0.006293804607413033 0.0030175775514993983,0.012673825716297476 0.004914340583870453,0.01896763032371052 c0.004224608572099158,0.01388085673689724 0.00931138215891243,0.02741684746790882 0.014398155745725706,0.04103905470039186 c0.002241629038256698,0.0060351551029987965 0.004138392070627745,0.012156526707469008 0.00663867061329868,0.0181054653089964 c0.005000557085341861,0.012242743208940414 0.010777062683926423,0.023881970907580947 0.016467351781039582,0.03560741510769289 c0.003534876560327867,0.007328402625069968 0.006724887114770093,0.014656805250139937 0.010518413179512192,0.02181277487226708 c0.005172990088284685,0.009656248164798075 0.010949495686869247,0.018881413822239096 0.016467351781039582,0.028192795981151517 c0.005345423091227508,0.008880299651555368 0.010432196678040778,0.017846815804582163 0.016122485775153926,0.026554682453194707 c0.004741907580927626,0.007155969622127149 0.01008733067215513,0.013967073238368648 0.015174104258968412,0.020950609857552968 c0.007328402625069968,0.01008733067215513 0.014570588748668536,0.02034709434725308 0.02250250688403837,0.030175775514994004 c0.004397041575041984,0.00543163959269892 0.00931138215891243,0.010432196678040778 0.01388085673689724,0.01569140326779687 c0.00913894915596961,0.010518413179512192 0.01827789831193922,0.021036826359024378 0.02810657947968012,0.030951724028236677 c0.005086773586813273,0.005086773586813273 0.010690846182455017,0.009742464666269492 0.015950052772211114,0.014829238253082754 c0.0098286811677409,0.009225165657441019 0.019484929332538977,0.018536547816353447 0.029917126010579772,0.0271581979634946 c0.01008733067215513,0.00836300064272691 0.020778176854610152,0.015950052772211114 0.031296590034122336,0.02362332140316671 c0.006207588105941622,0.004569474577984805 0.011984093704526189,0.009397598660383848 0.018364114813410635,0.013794640235425823 c0.018536547816353447,0.01250139271335465 0.037762827644478206,0.02414062041199518 0.05759262298290283,0.0348314665944502 l15.94444869961546,8.618718786091108 c0.022933589391395427,0.012587609214826068 0.046901776800447804,0.0234508884002239 0.0714734797198001,0.033279569567964795 c0.005345423091227508,0.0020691960353138726 0.010777062683926423,0.003965959067684924 0.016208702276625343,0.005862722100055976 c0.01793303230605357,0.00663867061329868 0.03612471411652138,0.01250139271335465 0.054833694935817655,0.017415733297225098 c0.006724887114770093,0.0018105465308996403 0.013363557728068768,0.0036210930617992807 0.02008844484283885,0.005172990088284685 c0.0181054653089964,0.004224608572099158 0.036469580122407,0.007587052129484204 0.05509234444023188,0.010259763675097958 c0.0063800211088844445,0.0008621650147141144 0.012587609214826068,0.0020691960353138726 0.01896763032371052,0.002845144548556577 c0.024313053414938012,0.002758928047085166 0.048970972835761684,0.004569474577984805 0.07405997476394242,0.004569474577984805 c0.025089001928180716,0 0.049746921349004374,-0.0018105465308996403 0.07405997476394242,-0.004569474577984805 c0.0063800211088844445,-0.0007759485132427029 0.012673825716297476,-0.0019829795338424635 0.01905384682518191,-0.002845144548556577 c0.018622764317824864,-0.0026727115456137538 0.03698687913123546,-0.0060351551029987965 0.055006127938760474,-0.010259763675097958 c0.006724887114770093,-0.0015518970264854054 0.01344977422954018,-0.0033624435573850454 0.02008844484283885,-0.005172990088284685 c0.018622764317824864,-0.005000557085341861 0.03690066262976406,-0.010777062683926423 0.05474747843434622,-0.017415733297225098 c0.00543163959269892,-0.001896763032371052 0.010863279185397838,-0.003793526064742104 0.016208702276625343,-0.005862722100055976 c0.02448548641788084,-0.0098286811677409 0.0484536738269332,-0.020691960353138746 0.07138726321832864,-0.033279569567964795 l15.94444869961546,-8.618718786091108 c0.019829795338424622,-0.010690846182455017 0.03905607516654935,-0.022330073881095557 0.05759262298290283,-0.0348314665944502 c0.0063800211088844445,-0.004397041575041984 0.012242743208940414,-0.00931138215891243 0.018364114813410635,-0.013794640235425823 c0.010604629680983598,-0.007759485132427024 0.021295475863438613,-0.01534653726191124 0.031296590034122336,-0.02362332140316671 c0.010432196678040778,-0.008621650147141136 0.02008844484283885,-0.01793303230605357 0.029917126010579772,-0.0271581979634946 c0.005259206589756098,-0.005086773586813273 0.010863279185397838,-0.009656248164798075 0.015950052772211114,-0.014829238253082754 c0.0098286811677409,-0.009914897669212316 0.01896763032371052,-0.020433310848724493 0.02810657947968012,-0.030951724028236677 c0.004569474577984805,-0.005259206589756098 0.009483815161855253,-0.010259763675097958 0.01388085673689724,-0.01569140326779687 c0.007931918135369847,-0.009742464666269492 0.015174104258968412,-0.02000222834136745 0.02250250688403837,-0.030175775514994004 c0.005086773586813273,-0.006983536619184326 0.010432196678040778,-0.013794640235425823 0.015174104258968412,-0.020950609857552968 c0.005690289097113153,-0.00870786664861255 0.010777062683926423,-0.01758816630016793 0.016122485775153926,-0.026554682453194707 c0.005604072595641742,-0.00931138215891243 0.011380578194226307,-0.018536547816353447 0.016467351781039582,-0.028192795981151517 c0.003793526064742104,-0.007155969622127149 0.006983536619184326,-0.01448437224719712 0.010518413179512192,-0.02181277487226708 c0.005690289097113153,-0.01172544420011195 0.01146679469569772,-0.02336467189875249 0.016467351781039582,-0.03560741510769289 c0.0025002785426709315,-0.0059489386015273895 0.004397041575041984,-0.01207031020599759 0.00663867061329868,-0.0181054653089964 c0.005086773586813273,-0.013535990731011593 0.010173547173626547,-0.02707198146202319 0.014398155745725706,-0.04103905470039186 c0.001896763032371052,-0.006207588105941622 0.0031900105544422222,-0.012587609214826068 0.004914340583870453,-0.01896763032371052 c0.0036210930617992807,-0.013708423733954415 0.007414619126541375,-0.027330630966437404 0.010173547173626547,-0.041383920706277486 c0.002241629038256698,-0.011121928689812068 0.003534876560327867,-0.022416290382566966 0.005172990088284685,-0.03371065207532185 c0.001293247522071171,-0.00931138215891243 0.0031900105544422222,-0.018450331314882037 0.004052175569156337,-0.027847929975265886 c0.002241629038256698,-0.022071424376681307 0.0033624435573850454,-0.04431528175630544 0.0032762270559136336,-0.06655913913592962 V23.204050556511238 l4.958310999620867,-2.6874545673653634 c0.17846815804582164,-0.0965624816479808 0.30261992016465394,-0.2741684746790883 0.3319335306649338,-0.47419075809276245 c0.02931361050027988,-0.20088444842838848 -0.037935260647421,-0.4060797219303477 -0.18019248807524982,-0.5500612793876046 L38.754326689469764,14.608437792814469 zM27.34943544182852,1.4459369461770393 l14.723795471783214,7.980285592695307 l-4.348587901215047,4.383936666818325 L22.96403309448518,5.831339293520378 L27.34943544182852,1.4459369461770393 zM21.893655228717613,6.722731702233301 l14.588435564473102,7.885706090581168 L21.893310362711727,22.494316316398578 L7.304874798238624,14.608610225817412 L21.893655228717613,6.722731702233301 zM6.061977713026759,15.406802596439737 l14.760696134412981,7.978819912170293 l-4.3854885638448105,4.38540234734334 L6.254499160812419,22.252047947263915 c-0.0018105465308996403,-0.0010345980176569367 -0.0036210930617992807,-0.0019829795338424635 -0.00543163959269892,-0.0029313610500279873 l-4.5356777094080085,-2.4583773229558235 L6.061977713026759,15.406802596439737 zM16.245094918316624,29.137901270281123 c0.09699356415533782,0.05250584939608952 0.20286742796223095,0.07811215033309873 0.30787912675441015,0.07811215033309873 c0.1675186623589524,0 0.3330543451840622,-0.06500724210944421 0.4574647568073085,-0.1893314372312194 l4.236247799797797,-4.236247799797797 v17.621273436732938 L6.590226217542096,34.48918708360868 V23.904990713473815 L16.245094918316624,29.137901270281123 zM37.540139699247874,22.247823338691813 c-0.003534876560327867,0.0018105465308996403 -0.006983536619184326,0.003707309563270691 -0.010432196678040778,0.005604072595641742 l-3.221479577479286,1.7461428043004947 c-0.15260320760439822,0.08190567639784083 -0.26296032948780473,0.2189899137373849 -0.3121037353265093,0.38452559656249474 c-0.049143405838704475,0.16562189932658122 -0.031037940529708114,0.34055518081207503 0.050867735868132716,0.4923824399032303 c0.11380578194226301,0.20864393356081554 0.3319335306649338,0.3379686857679327 0.5690289097113153,0.3379686857679327 c0.10690846182455009,0 0.2138169236491002,-0.026813331957608936 0.30779291025293853,-0.07759485132427027 l2.27249454578346,-1.2317751565220547 v10.584282586636343 L22.53993412374731,42.41179383681962 V24.79017553408079 l4.236592665803683,4.236592665803683 c0.1225136485908756,0.12242743208940417 0.2845144548556576,0.189676303237105 0.4569474577984803,0.189676303237105 c0.10690846182455009,0 0.21295475863438612,-0.027589280470851657 0.30779291025293853,-0.07845701633898441 l5.109103660694365,-2.7691878107602603 c0.1517410425896841,-0.08190567639784083 0.26209816447309064,-0.2189899137373849 0.3112415703117951,-0.38452559656249474 c0.049143405838704475,-0.16553568282510991 0.031037940529708114,-0.33969301579736083 -0.050867735868132716,-0.49143405838704474 c-0.11380578194226301,-0.20950609857552976 -0.3319335306649338,-0.33883085078264674 -0.5698910747260292,-0.33883085078264674 c-0.10604629680983597,0 -0.21295475863438612,0.026727115456137526 -0.3069307452382246,0.07845701633898441 l-4.684056308440308,2.5380413703154074 l-4.385747213349225,-4.384798831833039 l14.760868567415924,-7.979250994677651 l4.348674117716517,4.384109099821267 L37.540139699247874,22.247823338691813 z" id="svg_12" class=""/><g id="svg_13" class="">
</g><g id="svg_14" class="">
</g><g id="svg_15" class="">
</g><g id="svg_16" class="">
</g><g id="svg_17" class="">
</g><g id="svg_18" class="">
</g><g id="svg_19" class="">
</g><g id="svg_20" class="">
</g><g id="svg_21" class="">
</g><g id="svg_22" class="">
</g><g id="svg_23" class="">
</g><g id="svg_24" class="">
</g><g id="svg_25" class="">
</g><g id="svg_26" class="">
</g><g id="svg_27" class="">
</g></g><path fill="#ffffff" fill-opacity="1" stroke="#abecab" stroke-opacity="1" stroke-width="0.3" stroke-dasharray="none" stroke-linejoin="round" stroke-linecap="butt" stroke-dashoffset="" fill-rule="nonzero" opacity="1" marker-start="" marker-mid="" marker-end="" d="M15.627660242004415,14.606382748546162 C15.627660242004415,11.085752767642049 18.479370526536748,8.234042483109718 22.000000507440866,8.234042483109718 C25.520630488344977,8.234042483109718 28.372340772877315,11.085752767642049 28.372340772877315,14.606382748546162 C28.372340772877315,18.127012729450282 25.520630488344977,20.978723013982613 22.000000507440866,20.978723013982613 C18.479370526536748,20.978723013982613 15.627660242004415,18.127012729450282 15.627660242004415,14.606382748546162 z" id="svg_29" class=""/></g></svg>