<svg xmlns="http://www.w3.org/2000/svg" xmlns:xlink="http://www.w3.org/1999/xlink" version="1.1" style="enable-background:new 0 0 470.606 470.606;" xml:space="preserve" width="64" height="64"><rect id="backgroundrect" width="100%" height="100%" x="0" y="0" fill="none" stroke="none" class="" style=""/>
















<g class="currentLayer" style=""><title>Layer 1</title><g id="svg_1" class="" transform="rotate(-44.91128921508789 32.242942810058565,32.22108078002929) ">
	<g id="svg_2">
		<g id="svg_3">
			<path d="M18.57586774434126,30.843994196629954 c1.4068873005043987,0 2.7878843491984178,-0.23730894638108774 4.104871881714439,-0.7054267333695917 c0.4299985226208831,-0.15280757132338366 0.6546377713075286,-0.6253322096838656 0.5019403712684465,-1.0553307323047485 c-0.15291774260768295,-0.4299985226208831 -0.6255525522524644,-0.6544174287389285 -1.0553307323047485,-0.501830199984145 c-1.1388405658037566,0.4047692985163017 -2.3337583153159502,0.6100184011662381 -3.5513713493938375,0.6100184011662381 c-5.847010400342165,0 -10.603986113825245,-4.7569757134830795 -10.603986113825245,-10.603986113825245 c0,-5.847010400342165 4.7569757134830795,-10.603986113825245 10.603986113825245,-10.603986113825245 c5.847010400342165,0 10.603986113825245,4.7569757134830795 10.603986113825245,10.603986113825245 c0,1.1847819913566413 -0.19445231678858796,2.3488517812649787 -0.5777382148664907,3.459819012140966 c-0.14895157637290146,0.4314307493167754 0.08020469497002433,0.901751961991269 0.5116354442867987,1.0505933670798708 c0.4312104067481766,0.1487312338043029 0.9018621332755685,-0.08020469497002433 1.0505933670798708,-0.5116354442867987 c0.4433292480211201,-1.2848175175005718 0.6680786679920676,-2.6302292413658592 0.6680786679920676,-3.9988871062183358 c0,-6.758237092783189 -5.498208114250002,-12.256555378317492 -12.256555378317492,-12.256555378317492 S6.319312366023771,11.829091554244975 6.319312366023771,18.587438818312464 S11.817520480273771,30.843994196629954 18.57586774434126,30.843994196629954 z" id="svg_4"/>
			<path d="M29.159361999286798,41.296164280690505 c-0.43065955032667985,0.15093465949029242 -0.6575022246993155,0.622247413723482 -0.5066777364933248,1.053017135334459 c0.39397251265495253,1.1249589839820224 0.593823222374214,2.304452753692287 0.593823222374214,3.505650266409551 c0,5.847010400342165 -4.7569757134830795,10.603986113825245 -10.603986113825245,10.603986113825245 c-5.847010400342165,0 -10.603986113825245,-4.7569757134830795 -10.603986113825245,-10.603986113825245 c0,-5.847010400342165 4.7569757134830795,-10.603986113825245 10.603986113825245,-10.603986113825245 c1.200866998864366,0 2.380250597290332,0.19974053843496337 3.505650266409551,0.593823222374214 c0.4309900641795796,0.1508244882059927 0.9020824758441676,-0.07601818616664376 1.05290696405016,-0.5067879077776226 c0.1508244882059927,-0.43065955032667985 -0.07601818616664376,-0.9020824758441676 -0.5067879077776226,-1.05290696405016 c-1.301343210145494,-0.45566843186266287 -2.6644925107829973,-0.686697615038679 -4.051769322682088,-0.686697615038679 c-6.7583472640674875,0 -12.256555378317492,5.498318285534301 -12.256555378317492,12.256555378317492 s5.498208114250002,12.256555378317492 12.256555378317492,12.256555378317492 s12.256555378317492,-5.498318285534301 12.256555378317492,-12.256555378317492 c0,-1.38760732575199 -0.23102918317601667,-2.7508667976737926 -0.686697615038679,-4.051879493966387 C30.06155464641527,41.37218246685715 29.590131720897784,41.145229621200215 29.159361999286798,41.296164280690505 z" id="svg_5"/>
			<path d="M45.909914235464505,33.59827630411703 c-1.3873869831833912,0 -2.7505362838208933,0.23102918317601667 -4.051769322682088,0.686697615038679 c-0.43065955032667985,0.1508244882059927 -0.6576123959836155,0.622247413723482 -0.5067879077776226,1.05290696405016 c0.15071431692169324,0.4307697216109801 0.6223575850077805,0.6575022246993155 1.05290696405016,0.5067879077776226 c1.1253996691192194,-0.39408268393925167 2.3047832675451856,-0.593823222374214 3.505650266409551,-0.593823222374214 c5.847010400342165,0 10.603986113825245,4.7569757134830795 10.603986113825245,10.603986113825245 c0,5.847010400342165 -4.7569757134830795,10.603986113825245 -10.603986113825245,10.603986113825245 c-5.847010400342165,0 -10.603986113825245,-4.7569757134830795 -10.603986113825245,-10.603986113825245 c0,-1.200866998864366 0.19974053843496337,-2.3803607685746315 0.593823222374214,-3.505650266409551 c0.1508244882059927,-0.43065955032667985 -0.07601818616664376,-0.9020824758441676 -0.5067879077776226,-1.05290696405016 c-0.4307697216109801,-0.15071431692169324 -0.9020824758441676,0.0761283574509432 -1.05290696405016,0.5067879077776226 c-0.4557786031469623,1.301343210145494 -0.686697615038679,2.6644925107829973 -0.686697615038679,4.051769322682088 c0,6.758237092783189 5.498208114250002,12.256555378317492 12.256555378317492,12.256555378317492 s12.256555378317492,-5.498318285534301 12.256555378317492,-12.256555378317492 S52.668261499531994,33.59827630411703 45.909914235464505,33.59827630411703 z" id="svg_6"/>
			<path d="M35.39307360752016,23.145996048772172 c0.43065955032667985,-0.1508244882059927 0.6576123959836155,-0.622247413723482 0.5067879077776226,-1.05290696405016 c-0.39397251265495253,-1.1252894978349197 -0.593823222374214,-2.3047832675451856 -0.593823222374214,-3.505650266409551 c0,-5.847010400342165 4.7569757134830795,-10.603986113825245 10.603986113825245,-10.603986113825245 c5.847010400342165,0 10.603986113825245,4.7569757134830795 10.603986113825245,10.603986113825245 s-4.7569757134830795,10.603986113825245 -10.603986113825245,10.603986113825245 c-1.2009771701486647,0 -2.380470939858931,-0.19974053843496337 -3.505650266409551,-0.593823222374214 c-0.43065955032667985,-0.15071431692169324 -0.9020824758441676,0.0761283574509432 -1.05290696405016,0.5067879077776226 c-0.1508244882059927,0.4307697216109801 0.07590801488234414,0.9020824758441676 0.5067879077776226,1.053017135334459 c1.301122867576895,0.45566843186266287 2.664382339498699,0.686697615038679 4.051769322682088,0.686697615038679 c6.7583472640674875,0 12.256555378317492,-5.498318285534301 12.256555378317492,-12.256555378317492 S52.668261499531994,6.330883439994973 45.909914235464505,6.330883439994973 s-12.256555378317492,5.498318285534301 -12.256555378317492,12.256555378317492 c0,1.387276811899091 0.23102918317601667,2.7505362838208933 0.686697615038679,4.051769322682088 C34.49088096039169,23.069977862605533 34.962414057193484,23.296930708262465 35.39307360752016,23.145996048772172 z" id="svg_7"/>
			<path d="M42.92614534278161,46.37660288487687 c0.05949249352172099,0.3408699536226022 0.175723198457676,0.6623497612084922 0.3393275556424086,0.9540833220335234 l-3.6825853489945213,3.6826955202788207 c-0.322691691713187,0.322691691713187 -0.322691691713187,0.8458951208514316 0,1.1684766412803178 c0.16140093149874332,0.16129076021444402 0.3729297973537512,0.24204631160596493 0.5843484919244596,0.24204631160596493 c0.21141869457070864,0 0.4229475604257158,-0.08064538010722191 0.5843484919244596,-0.24204631160596493 l3.6825853489945213,-3.6825853489945213 c0.4370494848160488,0.2449107649977516 0.9403119114960876,0.38526898119529374 1.4759646957601744,0.38526898119529374 c1.670527183833062,0 3.0297103182357845,-1.359072963118423 3.0297103182357845,-3.0297103182357845 c0,-0.535652784264088 -0.14024804491324208,-1.0389152109441253 -0.38515880991099316,-1.4759646957601744 l3.6826955202788207,-3.6826955202788207 c0.322691691713187,-0.322691691713187 0.322691691713187,-0.8458951208514316 0,-1.1684766412803178 c-0.322691691713187,-0.322691691713187 -0.8457849495671317,-0.322691691713187 -1.1685868125646168,0 l-3.6826955202788207,3.6825853489945213 c-0.2918437321093309,-0.16349418590043338 -0.6132133684109242,-0.2798350621206884 -0.9540833220335234,-0.3393275556424086 l-9.045172612271859,-9.045172612271859 c0.1595280196656522,-0.5068980790619222 0.24579213527214833,-1.0458560018549932 0.24579213527214833,-1.604644755821972 c0,-0.5587887539669786 -0.08637428689079477,-1.0978568480443496 -0.24590230655644796,-1.6047549271062707 l9.045172612271859,-9.045172612271859 c0.3408699536226022,-0.05949249352172099 0.6622395899241938,-0.175723198457676 0.9540833220335234,-0.3393275556424086 l3.6826955202788207,3.6825853489945213 c0.16140093149874332,0.16129076021444402 0.3729297973537512,0.24204631160596493 0.5843484919244596,0.24204631160596493 c0.21141869457070864,0 0.4229475604257158,-0.08064538010722191 0.5843484919244596,-0.24204631160596493 c0.322691691713187,-0.322691691713187 0.322691691713187,-0.8458951208514316 0,-1.1684766412803178 l-3.6826955202788207,-3.6826955202788207 c0.2449107649977516,-0.4370494848160488 0.38515880991099316,-0.9403119114960876 0.38515880991099316,-1.4759646957601744 c0,-1.6706373551173614 -1.3591831344027236,-3.0297103182357845 -3.0297103182357845,-3.0297103182357845 c-0.535652784264088,0 -1.0388050396598258,0.14024804491324208 -1.4759646957601744,0.38515880991099316 l-3.6825853489945213,-3.6825853489945213 c-0.3228018629974865,-0.322691691713187 -0.8458951208514316,-0.322691691713187 -1.1685868125646168,0 c-0.322691691713187,0.322691691713187 -0.322691691713187,0.8458951208514316 0,1.1684766412803178 l3.6825853489945213,3.6826955202788207 c-0.16349418590043338,0.2918437321093309 -0.2798350621206884,0.6132133684109242 -0.3393275556424086,0.9540833220335234 l-9.045172612271859,9.045172612271859 c-0.5068980790619222,-0.1595280196656522 -1.0458560018549932,-0.24579213527214833 -1.604644755821972,-0.24579213527214833 c-0.5587887539669786,0 -1.0978568480443496,0.08637428689079477 -1.604644755821972,0.24579213527214833 l-9.045172612271859,-9.045172612271859 c-0.05949249352172099,-0.3408699536226022 -0.175723198457676,-0.6622395899241938 -0.3393275556424086,-0.9540833220335234 l3.6826955202788207,-3.6826955202788207 c0.322691691713187,-0.322691691713187 0.322691691713187,-0.8458951208514316 0,-1.1684766412803178 c-0.322691691713187,-0.322691691713187 -0.8457849495671317,-0.322691691713187 -1.1685868125646168,0 l-3.6826955202788207,3.6825853489945213 c-0.4370494848160488,-0.2449107649977516 -0.9403119114960876,-0.38515880991099316 -1.4759646957601744,-0.38515880991099316 c-1.670527183833062,0 -3.0297103182357845,1.359072963118423 -3.0297103182357845,3.0297103182357845 c0,0.535652784264088 0.14024804491324208,1.0389152109441253 0.38515880991099316,1.4759646957601744 l-3.6825853489945213,3.6826955202788207 c-0.322691691713187,0.322691691713187 -0.322691691713187,0.8458951208514316 0,1.1684766412803178 c0.16140093149874332,0.16129076021444402 0.3729297973537512,0.24204631160596493 0.5843484919244596,0.24204631160596493 s0.4229475604257158,-0.08064538010722191 0.5843484919244596,-0.24204631160596493 l3.6825853489945213,-3.6825853489945213 c0.2918437321093309,0.16349418590043338 0.6133235396952228,0.2798350621206884 0.9541934933178234,0.3393275556424086 l9.045172612271859,9.045172612271859 c-0.1595280196656522,0.5068980790619222 -0.24590230655644796,1.0458560018549932 -0.24590230655644796,1.6047549271062707 c0,0.5587887539669786 0.0862641156064956,1.0977466767600494 0.24579213527214833,1.604644755821972 l-9.045172612271859,9.045282783556157 c-0.3408699536226022,0.05949249352172099 -0.6623497612084922,0.17583336974197533 -0.9541934933178234,0.3393275556424086 l-3.6825853489945213,-3.6825853489945213 c-0.322691691713187,-0.322691691713187 -0.8457849495671317,-0.322691691713187 -1.1685868125646168,0 c-0.322691691713187,0.322691691713187 -0.322691691713187,0.8458951208514316 0,1.1684766412803178 l3.6825853489945213,3.6826955202788207 c-0.2449107649977516,0.4370494848160488 -0.38515880991099316,0.9403119114960876 -0.38515880991099316,1.4759646957601744 c0,1.6706373551173614 1.3591831344027236,3.0297103182357845 3.0297103182357845,3.0297103182357845 c0.535652784264088,0 1.0389152109441253,-0.14024804491324208 1.4759646957601744,-0.38526898119529374 l3.6826955202788207,3.6825853489945213 c0.16140093149874332,0.16129076021444402 0.3729297973537512,0.24204631160596493 0.5843484919244596,0.24204631160596493 s0.4229475604257158,-0.08064538010722191 0.5843484919244596,-0.24204631160596493 c0.322691691713187,-0.322691691713187 0.322691691713187,-0.8458951208514316 0,-1.1684766412803178 l-3.6826955202788207,-3.6826955202788207 c0.16349418590043338,-0.29173356082503143 0.2798350621206884,-0.6131031971266252 0.3392173843581093,-0.9539731507492241 l9.045172612271859,-9.045282783556157 c0.5068980790619222,0.1595280196656522 1.0458560018549932,0.24590230655644796 1.6047549271062707,0.24590230655644796 s1.0978568480443496,-0.08637428689079477 1.6047549271062707,-0.24590230655644796 L42.92614534278161,46.37660288487687 zM45.909914235464505,44.47769062869098 c0.37832819028442577,0 0.7212913983087168,0.15346859902918036 0.9704988433941466,0.40124381741871834 c0.25328378260451195,0.25460583801610664 0.4066422103493928,0.5976792173246964 0.4066422103493928,0.9758972363248212 c0,0.7593004913920385 -0.6177303910672041,1.3771410537435385 -1.3771410537435385,1.3771410537435385 c-0.37832819028442577,0 -0.7212913983087168,-0.15346859902918036 -0.9704988433941466,-0.40124381741871834 c-0.25328378260451195,-0.25460583801610664 -0.4066422103493928,-0.5976792173246964 -0.4066422103493928,-0.9758972363248212 C44.53277318172096,45.09542101975818 45.150503572788175,44.47769062869098 45.909914235464505,44.47769062869098 zM44.934016999139686,17.61705014620262 c0.25460583801610664,-0.25328378260451195 0.5976792173246964,-0.4066422103493928 0.9758972363248212,-0.4066422103493928 c0.7594106626763366,0 1.3771410537435385,0.6177303910672041 1.3771410537435385,1.3771410537435385 c0,0.37832819028442577 -0.15346859902918036,0.7212913983087168 -0.40124381741871834,0.9704988433941466 c-0.25460583801610664,0.25328378260451195 -0.5976792173246964,0.4066422103493928 -0.9758972363248212,0.4066422103493928 c-0.7594106626763366,0 -1.3771410537435385,-0.6177303910672041 -1.3771410537435385,-1.3771410537435385 C44.53277318172096,18.209220799312334 44.686241780750144,17.866147420003745 44.934016999139686,17.61705014620262 zM44.43394953970433,43.210280174109734 c-0.488940159721106,0.27399598405281494 -0.8944806572275038,0.6794263102749136 -1.1684766412803178,1.1684766412803178 l-7.833508827546142,-7.8336189988304445 c0.4469649004030037,-0.3270985430851663 0.8413780981951523,-0.7215117408773151 1.1684766412803178,-1.1684766412803178 L44.43394953970433,43.210280174109734 zM43.265472898424,20.063513685356938 c0.27399598405281494,0.488940159721106 0.6795364815592125,0.8944806572275038 1.1684766412803178,1.1684766412803178 l-7.833508827546142,7.833508827546142 c-0.3270985430851663,-0.4469649004030037 -0.7215117408773151,-0.8413780981951523 -1.1684766412803178,-1.1684766412803178 L43.265472898424,20.063513685356938 zM18.642521371342447,19.964579872056003 c-0.37832819028442577,0 -0.7212913983087168,-0.15346859902918036 -0.9704988433941466,-0.40124381741871834 c-0.25328378260451195,-0.25460583801610664 -0.4066422103493928,-0.5976792173246964 -0.4066422103493928,-0.9758972363248212 c0,-0.7594106626763366 0.6178405623515038,-1.3771410537435385 1.3771410537435385,-1.3771410537435385 c0.37832819028442577,0 0.7212913983087168,0.15346859902918036 0.9704988433941466,0.40124381741871834 c0.25328378260451195,0.25460583801610664 0.4066422103493928,0.5976792173246964 0.4066422103493928,0.9758972363248212 C20.019662425085986,19.346849480988798 19.40193203401878,19.964579872056003 18.642521371342447,19.964579872056003 zM20.118596238386925,21.23188015535295 c0.488940159721106,-0.27399598405281494 0.8943704859432036,-0.6794263102749136 1.1683664699960183,-1.1684766412803178 l7.8336189988304445,7.8336189988304445 c-0.4469649004030037,0.3270985430851663 -0.8413780981951523,0.7215117408773151 -1.1684766412803178,1.1684766412803178 L20.118596238386925,21.23188015535295 zM19.618418607667266,46.82533052582867 c-0.25460583801610664,0.25328378260451195 -0.5976792173246964,0.4066422103493928 -0.9758972363248212,0.4066422103493928 c-0.7593004913920385,0 -1.3771410537435385,-0.6178405623515038 -1.3771410537435385,-1.3771410537435385 c0,-0.37832819028442577 0.15346859902918036,-0.7212913983087168 0.40124381741871834,-0.9704988433941466 c0.25460583801610664,-0.25328378260451195 0.5976792173246964,-0.4066422103493928 0.9758972363248212,-0.4066422103493928 c0.7594106626763366,0 1.3771410537435385,0.6177303910672041 1.3771410537435385,1.3771410537435385 C20.019662425085986,46.23315987271894 19.8661938260568,46.57612308074324 19.618418607667266,46.82533052582867 zM21.28707287966724,44.37886698667434 c-0.27399598405281494,-0.488940159721106 -0.6795364815592125,-0.8944806572275038 -1.1684766412803178,-1.1684766412803178 l7.833508827546142,-7.8336189988304445 c0.3270985430851663,0.4469649004030037 0.7215117408773151,0.8413780981951523 1.1684766412803178,1.1684766412803178 L21.28707287966724,44.37886698667434 zM32.27621780340347,35.92476331466922 c-2.042134925775218,0 -3.703517893011422,-1.6614931385205047 -3.703517893011422,-3.703628064295721 c0,-2.042245097059517 1.6613829672362046,-3.703628064295721 3.703517893011422,-3.703628064295721 c2.042134925775218,0 3.703628064295721,1.6614931385205047 3.703628064295721,3.703628064295721 S34.318352729178706,35.92476331466922 32.27621780340347,35.92476331466922 z" id="svg_8"/>
		</g>
	</g>
</g><g id="svg_9" class="">
</g><g id="svg_10" class="">
</g><g id="svg_11" class="">
</g><g id="svg_12" class="">
</g><g id="svg_13" class="">
</g><g id="svg_14" class="">
</g><g id="svg_15" class="">
</g><g id="svg_16" class="">
</g><g id="svg_17" class="">
</g><g id="svg_18" class="">
</g><g id="svg_19" class="">
</g><g id="svg_20" class="">
</g><g id="svg_21" class="">
</g><g id="svg_22" class="">
</g><g id="svg_23" class="">
</g></g></svg>