<svg xmlns="http://www.w3.org/2000/svg" xmlns:xlink="http://www.w3.org/1999/xlink" version="1.1" style="" xml:space="preserve" width="102" height="94"><rect id="backgroundrect" width="100%" height="100%" x="0" y="0" fill="none" stroke="none" class="" style=""/>
















<g class="currentLayer" style=""><title>Layer 1</title><g id="svg_1" class="">
	<g id="svg_2">
		<g id="svg_3">
			<path d="M31.887374235606927,45.07421895226773 c1.9674512342648187,0 3.898696435635948,-0.3318629568211775 5.740427998235915,-0.9864988451838398 c0.6013282824851702,-0.2136926281852239 0.9154733934222025,-0.8744912455510628 0.7019348334620615,-1.4758195280362285 c-0.21384669641030338,-0.6013282824851702 -0.8747993820012216,-0.915165256972043 -1.4758195280362285,-0.7017807652369785 c-1.5926032426464656,0.5660466589419685 -3.263627211858381,0.8530757622650187 -4.966389235436666,0.8530757622650187 c-8.17670884141755,0 -14.829066663898839,-6.652357822481289 -14.829066663898839,-14.829066663898839 c0,-8.17670884141755 6.652357822481289,-14.829066663898839 14.829066663898839,-14.829066663898839 c8.17670884141755,0 14.829066663898839,6.652357822481289 14.829066663898839,14.829066663898839 c0,1.6568496925046068 -0.27193041726526385,3.2847345586942667 -0.8079337723167347,4.838358540395626 c-0.20830024030744224,0.6033311694111978 0.11216166785785422,1.261048422275449 0.7154928372690522,1.4691945943578124 c0.6030230329610395,0.2079921038572838 1.2612024905005292,-0.11216166785785422 1.4691945943578124,-0.7154928372690522 c0.6199705377197822,-1.7967436408767619 0.9342697168818973,-3.6782248055472304 0.9342697168818973,-5.592214365709465 c0,-9.451007131049833 -7.6889288408159535,-17.140090040090872 -17.140090040090872,-17.140090040090872 S14.74728419551606,18.48296771290197 14.74728419551606,27.934128912176874 S22.436213036332017,45.07421895226773 31.887374235606927,45.07421895226773 z" id="svg_4"/>
			<path d="M46.68778420964099,59.690979602007054 c-0.6022526918356425,0.21107346835887283 -0.9194791672742675,0.8701773352488412 -0.7085597671404796,1.4725840953095601 c0.5509479728841834,1.573190646286454 0.8304277331783405,3.2226450639872417 0.8304277331783405,4.902450922028685 c0,8.17670884141755 -6.652357822481289,14.829066663898839 -14.829066663898839,14.829066663898839 c-8.17670884141755,0 -14.829066663898839,-6.652357822481289 -14.829066663898839,-14.829066663898839 c0,-8.17670884141755 6.652357822481289,-14.829066663898839 14.829066663898839,-14.829066663898839 c1.6793436533662076,0 3.328644002841916,0.2793256920690786 4.902450922028685,0.8304277331783405 c0.6027148965108846,0.2109194001337934 1.2615106269506882,-0.10630707530483455 1.4724300270844806,-0.7087138353655561 c0.2109194001337934,-0.6022526918356425 -0.10630707530483455,-1.2615106269506882 -0.7087138353655561,-1.4724300270844806 c-1.8198538746386816,-0.6372261789286896 -3.726140023546944,-0.9603072469203329 -5.666167113747611,-0.9603072469203329 c-9.451161199274912,0 -17.140090040090872,7.689082909041033 -17.140090040090872,17.140090040090872 s7.6889288408159535,17.140090040090872 17.140090040090872,17.140090040090872 s17.140090040090872,-7.689082909041033 17.140090040090872,-17.140090040090872 c0,-1.9404892948759065 -0.32308106799164754,-3.8469295120092477 -0.9603072469203329,-5.66632118197269 C47.94944890481675,59.79728667731188 47.290190969701705,59.47990613364819 46.68778420964099,59.690979602007054 z" id="svg_5"/>
			<path d="M70.11247121894841,48.92592457925446 c-1.9401811584257482,0 -3.8464673073340085,0.32308106799164754 -5.666167113747611,0.9603072469203329 c-0.6022526918356425,0.2109194001337934 -0.9196332354993516,0.8701773352488412 -0.7087138353655561,1.4724300270844806 c0.21076533190871424,0.6024067600607185 0.8703314034739218,0.9194791672742675 1.4724300270844806,0.7087138353655561 c1.5738069191867705,-0.5511020411092623 3.2231072686624804,-0.8304277331783405 4.902450922028685,-0.8304277331783405 c8.17670884141755,0 14.829066663898839,6.652357822481289 14.829066663898839,14.829066663898839 c0,8.17670884141755 -6.652357822481289,14.829066663898839 -14.829066663898839,14.829066663898839 c-8.17670884141755,0 -14.829066663898839,-6.652357822481289 -14.829066663898839,-14.829066663898839 c0,-1.6793436533662076 0.2793256920690786,-3.3287980710669958 0.8304277331783405,-4.902450922028685 c0.2109194001337934,-0.6022526918356425 -0.10630707530483455,-1.2615106269506882 -0.7087138353655561,-1.4724300270844806 c-0.6024067600607185,-0.21076533190871424 -1.2615106269506882,0.10646114352991365 -1.4724300270844806,0.7087138353655561 c-0.6373802471537636,1.8198538746386816 -0.9603072469203329,3.726140023546944 -0.9603072469203329,5.666167113747611 c0,9.451007131049833 7.6889288408159535,17.140090040090872 17.140090040090872,17.140090040090872 s17.140090040090872,-7.689082909041033 17.140090040090872,-17.140090040090872 S79.56363241822336,48.92592457925446 70.11247121894841,48.92592457925446 z" id="svg_6"/>
			<path d="M55.40527252108748,34.30900986129004 c0.6022526918356425,-0.2109194001337934 0.9196332354993516,-0.8701773352488412 0.7087138353655561,-1.4724300270844806 c-0.5509479728841834,-1.5736528509616905 -0.8304277331783405,-3.2231072686624804 -0.8304277331783405,-4.902450922028685 c0,-8.17670884141755 6.652357822481289,-14.829066663898839 14.829066663898839,-14.829066663898839 c8.17670884141755,0 14.829066663898839,6.652357822481289 14.829066663898839,14.829066663898839 s-6.652357822481289,14.829066663898839 -14.829066663898839,14.829066663898839 c-1.679497721591286,0 -3.328952139292075,-0.2793256920690786 -4.902450922028685,-0.8304277331783405 c-0.6022526918356425,-0.21076533190871424 -1.2615106269506882,0.10646114352991365 -1.4724300270844806,0.7087138353655561 c-0.2109194001337934,0.6024067600607185 0.10615300707975421,1.2615106269506882 0.7087138353655561,1.4725840953095601 c1.819545738188522,0.6372261789286896 3.7259859553218657,0.9603072469203329 5.666167113747611,0.9603072469203329 c9.451161199274912,0 17.140090040090872,-7.689082909041033 17.140090040090872,-17.140090040090872 S79.56363241822336,10.794038872086011 70.11247121894841,10.794038872086011 s-17.140090040090872,7.689082909041033 -17.140090040090872,17.140090040090872 c0,1.940027090200667 0.32308106799164754,3.8464673073340085 0.9603072469203329,5.666167113747611 C54.1436078259117,34.20270278598521 54.80301982925183,34.52008332964891 55.40527252108748,34.30900986129004 z" id="svg_7"/>
			<path d="M65.93984147912121,66.79568173332166 c0.08319684154291379,0.4766870883958801 0.24573881900175393,0.926258169177765 0.47453013324476667,1.3342308291881972 l-5.149884491506313,5.150038559731392 c-0.4512658312577649,0.4512658312577649 -0.4512658312577649,1.1829358321601635 0,1.6340475951928441 c0.22570994974142286,0.22555588151634412 0.5215209418940027,0.3384878904995964 0.8171778658215028,0.3384878904995964 c0.2956569239275024,0 0.5914679160800826,-0.11277794075817264 0.8171778658215028,-0.3384878904995964 l5.149884491506313,-5.149884491506313 c0.6111886488902495,0.3424936643516605 1.3149723010532632,0.5387765831029038 2.0640520113896392,0.5387765831029038 c2.3361364968799805,0 4.236876189685383,-1.9005856245803228 4.236876189685383,-4.236876189685383 c0,-0.7490797103363828 -0.19612885052616474,-1.4528633624993874 -0.538622514877824,-2.0640520113896392 l5.150038559731392,-5.150038559731392 c0.4512658312577649,-0.4512658312577649 0.4512658312577649,-1.1829358321601635 0,-1.6340475951928441 c-0.4512658312577649,-0.4512658312577649 -1.1827817639350768,-0.4512658312577649 -1.6342016634179224,0 l-5.150038559731392,5.149884491506313 c-0.40812672823551527,-0.22863724601793312 -0.8575437407923231,-0.3913332917018552 -1.3342308291881972,-0.47453013324476667 l-12.649155347249438,-12.649155347249438 c0.22309078991507164,-0.7088679035906359 0.3437262101522986,-1.4625696606793948 0.3437262101522986,-2.2440036982824596 c0,-0.7814340376030696 -0.12078948846230352,-1.5352898629169043 -0.3438802783773774,-2.2441577665075414 l12.649155347249438,-12.649155347249438 c0.4766870883958801,-0.08319684154291379 0.9261041009526885,-0.24573881900175393 1.3342308291881972,-0.47453013324476667 l5.150038559731392,5.149884491506313 c0.22570994974142286,0.22555588151634412 0.5215209418940027,0.3384878904995964 0.8171778658215028,0.3384878904995964 c0.2956569239275024,0 0.5914679160800826,-0.11277794075817264 0.8171778658215028,-0.3384878904995964 c0.4512658312577649,-0.4512658312577649 0.4512658312577649,-1.1829358321601635 0,-1.6340475951928441 l-5.150038559731392,-5.150038559731392 c0.3424936643516605,-0.6111886488902495 0.538622514877824,-1.3149723010532632 0.538622514877824,-2.0640520113896392 c0,-2.33629056510506 -1.9007396928054043,-4.236876189685383 -4.236876189685383,-4.236876189685383 c-0.7490797103363828,0 -1.4527092942743083,0.19612885052616474 -2.0640520113896392,0.538622514877824 l-5.149884491506313,-5.149884491506313 c-0.4514198994828483,-0.4512658312577649 -1.1829358321601635,-0.4512658312577649 -1.6342016634179224,0 c-0.4512658312577649,0.4512658312577649 -0.4512658312577649,1.1829358321601635 0,1.6340475951928441 l5.149884491506313,5.150038559731392 c-0.22863724601793312,0.40812672823551527 -0.3913332917018552,0.8575437407923231 -0.47453013324476667,1.3342308291881972 l-12.649155347249438,12.649155347249438 c-0.7088679035906359,-0.22309078991507164 -1.4625696606793948,-0.3437262101522986 -2.2440036982824596,-0.3437262101522986 c-0.7814340376030696,0 -1.5352898629169043,0.12078948846230352 -2.2440036982824596,0.3437262101522986 l-12.649155347249438,-12.649155347249438 c-0.08319684154291379,-0.4766870883958801 -0.24573881900175393,-0.9261041009526885 -0.47453013324476667,-1.3342308291881972 l5.150038559731392,-5.150038559731392 c0.4512658312577649,-0.4512658312577649 0.4512658312577649,-1.1829358321601635 0,-1.6340475951928441 c-0.4512658312577649,-0.4512658312577649 -1.1827817639350768,-0.4512658312577649 -1.6342016634179224,0 l-5.150038559731392,5.149884491506313 c-0.6111886488902495,-0.3424936643516605 -1.3149723010532632,-0.538622514877824 -2.0640520113896392,-0.538622514877824 c-2.3361364968799805,0 -4.236876189685383,1.9005856245803228 -4.236876189685383,4.236876189685383 c0,0.7490797103363828 0.19612885052616474,1.4528633624993874 0.538622514877824,2.0640520113896392 l-5.149884491506313,5.150038559731392 c-0.4512658312577649,0.4512658312577649 -0.4512658312577649,1.1829358321601635 0,1.6340475951928441 c0.22570994974142286,0.22555588151634412 0.5215209418940027,0.3384878904995964 0.8171778658215028,0.3384878904995964 s0.5914679160800826,-0.11277794075817264 0.8171778658215028,-0.3384878904995964 l5.149884491506313,-5.149884491506313 c0.40812672823551527,0.22863724601793312 0.8576978090174027,0.3913332917018552 1.3343848974132788,0.47453013324476667 l12.649155347249438,12.649155347249438 c-0.22309078991507164,0.7088679035906359 -0.3438802783773774,1.4625696606793948 -0.3438802783773774,2.2441577665075414 c0,0.7814340376030696 0.12063542023722477,1.5351357946918234 0.3437262101522986,2.2440036982824596 l-12.649155347249438,12.649309415474518 c-0.4766870883958801,0.08319684154291379 -0.926258169177765,0.24589288722683236 -1.3343848974132788,0.47453013324476667 l-5.149884491506313,-5.149884491506313 c-0.4512658312577649,-0.4512658312577649 -1.1827817639350768,-0.4512658312577649 -1.6342016634179224,0 c-0.4512658312577649,0.4512658312577649 -0.4512658312577649,1.1829358321601635 0,1.6340475951928441 l5.149884491506313,5.150038559731392 c-0.3424936643516605,0.6111886488902495 -0.538622514877824,1.3149723010532632 -0.538622514877824,2.0640520113896392 c0,2.33629056510506 1.9007396928054043,4.236876189685383 4.236876189685383,4.236876189685383 c0.7490797103363828,0 1.4528633624993874,-0.19612885052616474 2.0640520113896392,-0.5387765831029038 l5.150038559731392,5.149884491506313 c0.22570994974142286,0.22555588151634412 0.5215209418940027,0.3384878904995964 0.8171778658215028,0.3384878904995964 s0.5914679160800826,-0.11277794075817264 0.8171778658215028,-0.3384878904995964 c0.4512658312577649,-0.4512658312577649 0.4512658312577649,-1.1829358321601635 0,-1.6340475951928441 l-5.150038559731392,-5.150038559731392 c0.22863724601793312,-0.4079726600104346 0.3913332917018552,-0.8573896725672446 0.47437606501968876,-1.3340767609631183 l12.649155347249438,-12.649309415474518 c0.7088679035906359,0.22309078991507164 1.4625696606793948,0.3438802783773774 2.2441577665075414,0.3438802783773774 s1.5352898629169043,-0.12078948846230352 2.2441577665075414,-0.3438802783773774 L65.93984147912121,66.79568173332166 zM70.11247121894841,64.14016180585196 c0.5290702849228985,0 1.0086846695952842,0.21461703753570133 1.3571869947250381,0.5611164757394275 c0.35420284945770086,0.3560516681586571 0.568665818768321,0.8358201210561188 0.568665818768321,1.3647363377539325 c0,1.0618382072477015 -0.8638605380205842,1.925852813493357 -1.925852813493357,1.925852813493357 c-0.5290702849228985,0 -1.0086846695952842,-0.21461703753570133 -1.3571869947250381,-0.5611164757394275 c-0.35420284945770086,-0.3560516681586571 -0.568665818768321,-0.8358201210561188 -0.568665818768321,-1.3647363377539325 C68.18661840545506,65.00402234387256 69.05047894347568,64.14016180585196 70.11247121894841,64.14016180585196 zM68.74773488119452,26.5770959856769 c0.3560516681586571,-0.35420284945770086 0.8358201210561188,-0.568665818768321 1.3647363377539325,-0.568665818768321 c1.0619922754727813,0 1.925852813493357,0.8638605380205842 1.925852813493357,1.925852813493357 c0,0.5290702849228985 -0.21461703753570133,1.0086846695952842 -0.5611164757394275,1.3571869947250381 c-0.3560516681586571,0.35420284945770086 -0.8358201210561188,0.568665818768321 -1.3647363377539325,0.568665818768321 c-1.0619922754727813,0 -1.925852813493357,-0.8638605380205842 -1.925852813493357,-1.925852813493357 C68.18661840545506,27.40521269547906 68.40123544299078,26.92544424258159 68.74773488119452,26.5770959856769 zM68.04841920755878,62.367760944537736 c-0.683754782902682,0.3831676757726436 -1.2508799194202058,0.9501387440650876 -1.6340475951928441,1.6340475951928441 l-10.954713007825442,-10.954867076050526 c0.6250547891474053,-0.457428560260946 1.1766190349319012,-1.0089928060454414 1.6340475951928441,-1.6340475951928441 L68.04841920755878,62.367760944537736 zM66.41437161236595,29.998334991791605 c0.3831676757726436,0.683754782902682 0.950292812290164,1.2508799194202058 1.6340475951928441,1.6340475951928441 l-10.954713007825442,10.954713007825442 c-0.457428560260946,-0.6250547891474053 -1.0089928060454414,-1.1766190349319012 -1.6340475951928441,-1.6340475951928441 L66.41437161236595,29.998334991791605 zM31.980585511779985,29.859981725670227 c-0.5290702849228985,0 -1.0086846695952842,-0.21461703753570133 -1.3571869947250381,-0.5611164757394275 c-0.35420284945770086,-0.3560516681586571 -0.568665818768321,-0.8358201210561188 -0.568665818768321,-1.3647363377539325 c0,-1.0619922754727813 0.8640146062456645,-1.925852813493357 1.925852813493357,-1.925852813493357 c0.5290702849228985,0 1.0086846695952842,0.21461703753570133 1.3571869947250381,0.5611164757394275 c0.35420284945770086,0.3560516681586571 0.568665818768321,0.8358201210561188 0.568665818768321,1.3647363377539325 C33.906438325273335,28.99612118764963 33.042577787252775,29.859981725670227 31.980585511779985,29.859981725670227 zM34.04479159139473,31.632228518759348 c0.683754782902682,-0.3831676757726436 1.250725851195125,-0.9501387440650876 1.6338935269677637,-1.6340475951928441 l10.954867076050526,10.954867076050526 c-0.6250547891474053,0.457428560260946 -1.1766190349319012,1.0089928060454414 -1.6340475951928441,1.6340475951928441 L34.04479159139473,31.632228518759348 zM33.34532184953393,67.42320161407035 c-0.3560516681586571,0.35420284945770086 -0.8358201210561188,0.568665818768321 -1.3647363377539325,0.568665818768321 c-1.0618382072477015,0 -1.925852813493357,-0.8640146062456645 -1.925852813493357,-1.925852813493357 c0,-0.5290702849228985 0.21461703753570133,-1.0086846695952842 0.5611164757394275,-1.3571869947250381 c0.3560516681586571,-0.35420284945770086 0.8358201210561188,-0.568665818768321 1.3647363377539325,-0.568665818768321 c1.0619922754727813,0 1.925852813493357,0.8638605380205842 1.925852813493357,1.925852813493357 C33.906438325273335,66.59508490426822 33.691821287737646,67.07469928894058 33.34532184953393,67.42320161407035 zM35.67883918658755,64.00196260795566 c-0.3831676757726436,-0.683754782902682 -0.950292812290164,-1.2508799194202058 -1.6340475951928441,-1.6340475951928441 l10.954713007825442,-10.954867076050526 c0.457428560260946,0.6250547891474053 1.0089928060454414,1.1766190349319012 1.6340475951928441,1.6340475951928441 L35.67883918658755,64.00196260795566 zM51.0465283653642,52.17938328825759 c-2.8558086200730273,0 -5.179157454271411,-2.3235029024234652 -5.179157454271411,-5.179311522496489 c0,-2.855962688298106 2.323348834198384,-5.179311522496489 5.179157454271411,-5.179311522496489 c2.8558086200730273,0 5.179311522496489,2.3235029024234652 5.179311522496489,5.179311522496489 S53.902336985437266,52.17938328825759 51.0465283653642,52.17938328825759 z" id="svg_8"/>
		</g>
	</g>
</g><g id="svg_9" class="">
</g><g id="svg_10" class="">
</g><g id="svg_11" class="">
</g><g id="svg_12" class="">
</g><g id="svg_13" class="">
</g><g id="svg_14" class="">
</g><g id="svg_15" class="">
</g><g id="svg_16" class="">
</g><g id="svg_17" class="">
</g><g id="svg_18" class="">
</g><g id="svg_19" class="">
</g><g id="svg_20" class="">
</g><g id="svg_21" class="">
</g><g id="svg_22" class="">
</g><g id="svg_23" class="">
</g></g></svg>