<svg xmlns="http://www.w3.org/2000/svg" xmlns:xlink="http://www.w3.org/1999/xlink" version="1.1" style="enable-background:new 0 0 470.606 470.606;" xml:space="preserve" width="224.7931055045534" height="195.10344987854907"><rect id="backgroundrect" width="100%" height="100%" x="0" y="0" fill="none" stroke="none" class="" style=""/>
















<g class="currentLayer" style=""><title>Layer 1</title><g id="svg_1" class="" transform="rotate(-44.91128921508789 112.39655303955078,97.55172729492189) ">
	<g id="svg_2">
		<g id="svg_3">
			<path d="M96.32619041671455,95.93248950571378 c1.6542809326631143,0 3.2781189507470647,-0.2790384595893783 4.8266917204459565,-0.829472264044004 c0.50561147064872,-0.17967796817570442 0.7697523337419117,-0.7352935453246529 0.5902039098835679,-1.240905015973371 c-0.1798075124930624,-0.50561147064872 -0.7355526339593689,-0.7694932451071946 -1.240905015973371,-0.5900743655662071 c-1.339099608530821,0.4759458219737108 -2.7441372745969224,0.7172868852118758 -4.175861070038795,0.7172868852118758 c-6.875176010829808,0 -12.46864054571844,-5.593464534888631 -12.46864054571844,-12.46864054571844 c0,-6.875176010829808 5.593464534888631,-12.46864054571844 12.46864054571844,-12.46864054571844 c6.875176010829808,0 12.46864054571844,5.593464534888631 12.46864054571844,12.46864054571844 c0,1.3931195888691548 -0.2286457201370715,2.7618848460749827 -0.67933040022595,4.068209742314201 c-0.1751439170681702,0.5072955467743728 0.09430826303670772,1.06032023757616 0.6016038098110796,1.2353346103269722 c0.5070364581396565,0.17488482843345438 1.0604497818935186,-0.09430826303670772 1.2353346103269722,-0.6016038098110796 c0.5212863330490495,-1.5107458290303222 0.7855567404596028,-3.092741032607606 0.7855567404596028,-4.70207008714745 c0,-7.946637059698766 -6.465038702074021,-14.411805306090145 -14.411805306090145,-14.411805306090145 S81.91438511062441,73.57391759560753 81.91438511062441,81.52068419962364 S88.37942381269843,95.93248950571378 96.32619041671455,95.93248950571378 z" id="svg_4"/>
			<path d="M108.77073571940439,108.22261798211274 c-0.506388736552867,0.17747571478061658 -0.7731204859932225,0.7316663044386286 -0.5957743155299676,1.2381845853088502 c0.46325047887261667,1.3227770245436996 0.698243870560235,2.7096784861796634 0.698243870560235,4.1221001783351765 c0,6.875176010829808 -5.593464534888631,12.46864054571844 -12.46864054571844,12.46864054571844 c-6.875176010829808,0 -12.46864054571844,-5.593464534888631 -12.46864054571844,-12.46864054571844 c0,-6.875176010829808 5.593464534888631,-12.46864054571844 12.46864054571844,-12.46864054571844 c1.4120330592034398,0 2.798804976522046,0.23486384737026123 4.1221001783351765,0.698243870560235 c0.5067773695049425,0.1773461704632582 1.0607088705282348,-0.0893855789770992 1.2380550409914928,-0.5959038598473231 c0.1773461704632582,-0.506388736552867 -0.0893855789770992,-1.0607088705282348 -0.5959038598473231,-1.2380550409914928 c-1.5301774766340386,-0.5357952965931618 -3.1330293153059783,-0.8074497300931259 -4.764251359479346,-0.8074497300931259 c-7.946766604016123,0 -14.411805306090145,6.465168246391379 -14.411805306090145,14.411805306090145 s6.465038702074021,14.411805306090145 14.411805306090145,14.411805306090145 s14.411805306090145,-6.465168246391379 14.411805306090145,-14.411805306090145 c0,-1.6316106771254426 -0.2716544334999653,-3.23459206011474 -0.8074497300931259,-4.764380903796703 C109.83157413424998,108.31200356108982 109.27725400027461,108.04514226733212 108.77073571940439,108.22261798211274 z" id="svg_5"/>
			<path d="M128.46678327484932,99.17109743966664 c-1.6313515884907268,0 -3.2342034271626647,0.2716544334999653 -4.764251359479346,0.8074497300931259 c-0.506388736552867,0.1773461704632582 -0.773250030310583,0.7316663044386286 -0.5959038598473231,1.2380550409914928 c0.17721662614590034,0.5065182808702239 0.731795848755986,0.7731204859932225 1.2380550409914928,0.5959038598473231 c1.323295201813131,-0.4633800231899752 2.710067119131738,-0.698243870560235 4.1221001783351765,-0.698243870560235 c6.875176010829808,0 12.46864054571844,5.593464534888631 12.46864054571844,12.46864054571844 c0,6.875176010829808 -5.593464534888631,12.46864054571844 -12.46864054571844,12.46864054571844 c-6.875176010829808,0 -12.46864054571844,-5.593464534888631 -12.46864054571844,-12.46864054571844 c0,-1.4120330592034398 0.23486384737026123,-2.798934520839404 0.698243870560235,-4.1221001783351765 c0.1773461704632582,-0.506388736552867 -0.0893855789770992,-1.0607088705282348 -0.5959038598473231,-1.2380550409914928 c-0.5065182808702239,-0.17721662614590034 -1.0607088705282348,0.08951512329445717 -1.2380550409914928,0.5959038598473231 c-0.5359248409105176,1.5301774766340386 -0.8074497300931259,3.1330293153059783 -0.8074497300931259,4.764251359479346 c0,7.946637059698766 6.465038702074021,14.411805306090145 14.411805306090145,14.411805306090145 s14.411805306090145,-6.465168246391379 14.411805306090145,-14.411805306090145 S136.41354987886547,99.17109743966664 128.46678327484932,99.17109743966664 z" id="svg_6"/>
			<path d="M116.10061228416119,86.88083941895032 c0.506388736552867,-0.1773461704632582 0.773250030310583,-0.7316663044386286 0.5959038598473231,-1.2380550409914928 c-0.46325047887261667,-1.3231656574957726 -0.698243870560235,-2.710067119131738 -0.698243870560235,-4.1221001783351765 c0,-6.875176010829808 5.593464534888631,-12.46864054571844 12.46864054571844,-12.46864054571844 c6.875176010829808,0 12.46864054571844,5.593464534888631 12.46864054571844,12.46864054571844 s-5.593464534888631,12.46864054571844 -12.46864054571844,12.46864054571844 c-1.4121626035207968,0 -2.7990640651567618,-0.23486384737026123 -4.1221001783351765,-0.698243870560235 c-0.506388736552867,-0.17721662614590034 -1.0607088705282348,0.08951512329445717 -1.2380550409914928,0.5959038598473231 c-0.1773461704632582,0.5065182808702239 0.08925603465974062,1.0607088705282348 0.5959038598473231,1.2381845853088502 c1.5299183879993223,0.5357952965931618 3.1328997709886215,0.8074497300931259 4.764251359479346,0.8074497300931259 c7.946766604016123,0 14.411805306090145,-6.465168246391379 14.411805306090145,-14.411805306090145 S136.41354987886547,67.1088788935335 128.46678327484932,67.1088788935335 s-14.411805306090145,6.465168246391379 -14.411805306090145,14.411805306090145 c0,1.6312220441733676 0.2716544334999653,3.2342034271626647 0.8074497300931259,4.764251359479346 C115.03977386931558,86.79145383997322 115.59422354760831,87.05831513373093 116.10061228416119,86.88083941895032 z" id="svg_7"/>
			<path d="M124.95833452783955,114.19642463276479 c0.0699539313733817,0.40081011790600646 0.20662318618619244,0.7788204359569799 0.3989964974629923,1.1218537883212647 l-4.330148352012308,4.330277896329665 c-0.3794353055419163,0.3794353055419163 -0.3794353055419163,0.9946412686755997 0,1.3739470299001542 c0.1897824249296374,0.18965288061227972 0.4385075142572169,0.2846088652357776 0.6871030592674366,0.2846088652357776 c0.24859554501022146,0 0.4973206343377998,-0.09482644030614011 0.6871030592674366,-0.2846088652357776 l4.330148352012308,-4.330148352012308 c0.5139023069596355,0.2879770174870878 1.1056607486514998,0.4530164778013258 1.7355052196466487,0.4530164778013258 c1.9642804841010777,0 3.5624687273481257,-1.59805869892969 3.5624687273481257,-3.5624687273481257 c0,-0.6298444709951518 -0.16490991599687935,-1.2216029126870118 -0.4528869334839668,-1.7355052196466487 l4.330277896329665,-4.330277896329665 c0.3794353055419163,-0.3794353055419163 0.3794353055419163,-0.9946412686755997 0,-1.3739470299001542 c-0.3794353055419163,-0.3794353055419163 -0.9945117243582374,-0.3794353055419163 -1.3740765742175118,0 l-4.330277896329665,4.330148352012308 c-0.3431628966816446,-0.19224376695944176 -0.7210436704152626,-0.32904256608961163 -1.1218537883212647,-0.3989964974629923 l-10.635717999418489,-10.635717999418489 c0.18758017153454942,-0.5960334041646816 0.2890133720259543,-1.2297642046805735 0.2890133720259543,-1.886812982320927 c0,-0.6570487776403551 -0.10156274480876122,-1.2909091224736036 -0.2891429163433119,-1.8869425266382862 l10.635717999418489,-10.635717999418489 c0.40081011790600646,-0.0699539313733817 0.7786908916396238,-0.20662318618619244 1.1218537883212647,-0.3989964974629923 l4.330277896329665,4.330148352012308 c0.1897824249296374,0.18965288061227972 0.4385075142572169,0.2846088652357776 0.6871030592674366,0.2846088652357776 c0.24859554501022146,0 0.4973206343377998,-0.09482644030614011 0.6871030592674366,-0.2846088652357776 c0.3794353055419163,-0.3794353055419163 0.3794353055419163,-0.9946412686755997 0,-1.3739470299001542 l-4.330277896329665,-4.330277896329665 c0.2879770174870878,-0.5139023069596355 0.4528869334839668,-1.1056607486514998 0.4528869334839668,-1.7355052196466487 c0,-1.9644100284184358 -1.5981882432470496,-3.5624687273481257 -3.5624687273481257,-3.5624687273481257 c-0.6298444709951518,0 -1.2214733683696537,0.16490991599687935 -1.7355052196466487,0.4528869334839668 l-4.330148352012308,-4.330148352012308 c-0.379564849859276,-0.3794353055419163 -0.9946412686755997,-0.3794353055419163 -1.3740765742175118,0 c-0.3794353055419163,0.3794353055419163 -0.3794353055419163,0.9946412686755997 0,1.3739470299001542 l4.330148352012308,4.330277896329665 c-0.19224376695944176,0.3431628966816446 -0.32904256608961163,0.7210436704152626 -0.3989964974629923,1.1218537883212647 l-10.635717999418489,10.635717999418489 c-0.5960334041646816,-0.18758017153454942 -1.2297642046805735,-0.2890133720259543 -1.886812982320927,-0.2890133720259543 c-0.6570487776403551,0 -1.2909091224736036,0.10156274480876122 -1.886812982320927,0.2890133720259543 l-10.635717999418489,-10.635717999418489 c-0.0699539313733817,-0.40081011790600646 -0.20662318618619244,-0.7786908916396238 -0.3989964974629923,-1.1218537883212647 l4.330277896329665,-4.330277896329665 c0.3794353055419163,-0.3794353055419163 0.3794353055419163,-0.9946412686755997 0,-1.3739470299001542 c-0.3794353055419163,-0.3794353055419163 -0.9945117243582374,-0.3794353055419163 -1.3740765742175118,0 l-4.330277896329665,4.330148352012308 c-0.5139023069596355,-0.2879770174870878 -1.1056607486514998,-0.4528869334839668 -1.7355052196466487,-0.4528869334839668 c-1.9642804841010777,0 -3.5624687273481257,1.59805869892969 -3.5624687273481257,3.5624687273481257 c0,0.6298444709951518 0.16490991599687935,1.2216029126870118 0.4528869334839668,1.7355052196466487 l-4.330148352012308,4.330277896329665 c-0.3794353055419163,0.3794353055419163 -0.3794353055419163,0.9946412686755997 0,1.3739470299001542 c0.1897824249296374,0.18965288061227972 0.4385075142572169,0.2846088652357776 0.6871030592674366,0.2846088652357776 s0.4973206343377998,-0.09482644030614011 0.6871030592674366,-0.2846088652357776 l4.330148352012308,-4.330148352012308 c0.3431628966816446,0.19224376695944176 0.7211732147326194,0.32904256608961163 1.1219833326386235,0.3989964974629923 l10.635717999418489,10.635717999418489 c-0.18758017153454942,0.5960334041646816 -0.2891429163433119,1.2297642046805735 -0.2891429163433119,1.8869425266382862 c0,0.6570487776403551 0.1014332004914036,1.2907795781562448 0.2890133720259543,1.886812982320927 l-10.635717999418489,10.635847543735846 c-0.40081011790600646,0.0699539313733817 -0.7788204359569799,0.2067527305035499 -1.1219833326386235,0.3989964974629923 l-4.330148352012308,-4.330148352012308 c-0.3794353055419163,-0.3794353055419163 -0.9945117243582374,-0.3794353055419163 -1.3740765742175118,0 c-0.3794353055419163,0.3794353055419163 -0.3794353055419163,0.9946412686755997 0,1.3739470299001542 l4.330148352012308,4.330277896329665 c-0.2879770174870878,0.5139023069596355 -0.4528869334839668,1.1056607486514998 -0.4528869334839668,1.7355052196466487 c0,1.9644100284184358 1.5981882432470496,3.5624687273481257 3.5624687273481257,3.5624687273481257 c0.6298444709951518,0 1.2216029126870118,-0.16490991599687935 1.7355052196466487,-0.4530164778013258 l4.330277896329665,4.330148352012308 c0.1897824249296374,0.18965288061227972 0.4385075142572169,0.2846088652357776 0.6871030592674366,0.2846088652357776 s0.4973206343377998,-0.09482644030614011 0.6871030592674366,-0.2846088652357776 c0.3794353055419163,-0.3794353055419163 0.3794353055419163,-0.9946412686755997 0,-1.3739470299001542 l-4.330277896329665,-4.330277896329665 c0.19224376695944176,-0.34303335236428584 0.32904256608961163,-0.7209141260979045 0.39886695314563453,-1.1217242440039064 l10.635717999418489,-10.635847543735846 c0.5960334041646816,0.18758017153454942 1.2297642046805735,0.2891429163433119 1.8869425266382862,0.2891429163433119 s1.2909091224736036,-0.10156274480876122 1.8869425266382862,-0.2891429163433119 L124.95833452783955,114.19642463276479 zM128.46678327484932,111.96359877878035 c0.444855185807765,0 0.8481266457435729,0.18045523407985326 1.1411558916076237,0.4718004038182521 c0.2978223856063046,0.29937691741460354 0.478148075368799,0.7027779216677683 0.478148075368799,1.1475035631581716 c0,0.8928194352321223 -0.7263549874269463,1.6193039669764209 -1.6193039669764209,1.6193039669764209 c-0.444855185807765,0 -0.8481266457435729,-0.18045523407985326 -1.1411558916076237,-0.4718004038182521 c-0.2978223856063046,-0.29937691741460354 -0.478148075368799,-0.7027779216677683 -0.478148075368799,-1.1475035631581716 C126.8474793078729,112.68995376620731 127.57383429529987,111.96359877878035 128.46678327484932,111.96359877878035 zM127.31927971169117,80.37965785233337 c0.29937691741460354,-0.2978223856063046 0.7027779216677683,-0.478148075368799 1.1475035631581716,-0.478148075368799 c0.8929489795494798,0 1.6193039669764209,0.7263549874269463 1.6193039669764209,1.6193039669764209 c0,0.444855185807765 -0.18045523407985326,0.8481266457435729 -0.4718004038182521,1.1411558916076237 c-0.29937691741460354,0.2978223856063046 -0.7027779216677683,0.478148075368799 -1.1475035631581716,0.478148075368799 c-0.8929489795494798,0 -1.6193039669764209,-0.7263549874269463 -1.6193039669764209,-1.6193039669764209 C126.8474793078729,81.07595855813324 127.02793454195277,80.67255755388007 127.31927971169117,80.37965785233337 zM126.73127805520268,110.4733209518926 c-0.5749176804353086,0.3221767172696311 -1.051770312630526,0.7988998051474901 -1.3739470299001542,1.3739470299001542 l-9.210989597113953,-9.211119141431315 c0.5255612955218684,-0.3846170782362416 0.9893299516639146,-0.8483857343782879 1.3739470299001542,-1.3739470299001542 L126.73127805520268,110.4733209518926 zM125.35733102530253,83.25631896358766 c0.3221767172696311,0.5749176804353086 0.7990293494648466,1.051770312630526 1.3739470299001542,1.3739470299001542 l-9.210989597113953,9.210989597113953 c-0.3846170782362416,-0.5255612955218684 -0.8483857343782879,-0.9893299516639146 -1.3739470299001542,-1.3739470299001542 L125.35733102530253,83.25631896358766 zM96.4045647287162,83.13998816660006 c-0.444855185807765,0 -0.8481266457435729,-0.18045523407985326 -1.1411558916076237,-0.4718004038182521 c-0.2978223856063046,-0.29937691741460354 -0.478148075368799,-0.7027779216677683 -0.478148075368799,-1.1475035631581716 c0,-0.8929489795494798 0.7264845317443052,-1.6193039669764209 1.6193039669764209,-1.6193039669764209 c0.444855185807765,0 0.8481266457435729,0.18045523407985326 1.1411558916076237,0.4718004038182521 c0.2978223856063046,0.29937691741460354 0.478148075368799,0.7027779216677683 0.478148075368799,1.1475035631581716 C98.02386869569261,82.4136331791731 97.29751370826568,83.13998816660006 96.4045647287162,83.13998816660006 zM98.14019949268022,84.63013644917044 c0.5749176804353086,-0.3221767172696311 1.0516407683131668,-0.7988998051474901 1.3738174855827958,-1.3739470299001542 l9.211119141431315,9.211119141431315 c-0.5255612955218684,0.3846170782362416 -0.9893299516639146,0.8483857343782879 -1.3739470299001542,1.3739470299001542 L98.14019949268022,84.63013644917044 zM97.55206829187438,114.7240586373644 c-0.29937691741460354,0.2978223856063046 -0.7027779216677683,0.478148075368799 -1.1475035631581716,0.478148075368799 c-0.8928194352321223,0 -1.6193039669764209,-0.7264845317443052 -1.6193039669764209,-1.6193039669764209 c0,-0.444855185807765 0.18045523407985326,-0.8481266457435729 0.4718004038182521,-1.1411558916076237 c0.29937691741460354,-0.2978223856063046 0.7027779216677683,-0.478148075368799 1.1475035631581716,-0.478148075368799 c0.8929489795494798,0 1.6193039669764209,0.7263549874269463 1.6193039669764209,1.6193039669764209 C98.02386869569261,114.02775793156454 97.84341346161277,114.43102939150033 97.55206829187438,114.7240586373644 zM99.51414652258036,111.84739752611011 c-0.3221767172696311,-0.5749176804353086 -0.7990293494648466,-1.051770312630526 -1.3739470299001542,-1.3739470299001542 l9.210989597113953,-9.211119141431315 c0.3846170782362416,0.5255612955218684 0.8483857343782879,0.9893299516639146 1.3739470299001542,1.3739470299001542 L99.51414652258036,111.84739752611011 zM112.43567400178276,101.90668478931792 c-2.401233466549995,0 -4.354761772310348,-1.9536578500777133 -4.354761772310348,-4.354891316627706 c0,-2.4013630108673523 1.9535283057603539,-4.354891316627706 4.354761772310348,-4.354891316627706 c2.401233466549995,0 4.354891316627706,1.9536578500777133 4.354891316627706,4.354891316627706 S114.83690746833278,101.90668478931792 112.43567400178276,101.90668478931792 z" id="svg_8"/>
		</g>
	</g>
</g><g id="svg_9" class="">
</g><g id="svg_10" class="">
</g><g id="svg_11" class="">
</g><g id="svg_12" class="">
</g><g id="svg_13" class="">
</g><g id="svg_14" class="">
</g><g id="svg_15" class="">
</g><g id="svg_16" class="">
</g><g id="svg_17" class="">
</g><g id="svg_18" class="">
</g><g id="svg_19" class="">
</g><g id="svg_20" class="">
</g><g id="svg_21" class="">
</g><g id="svg_22" class="">
</g><g id="svg_23" class="">
</g></g></svg>