<svg xmlns="http://www.w3.org/2000/svg" xmlns:xlink="http://www.w3.org/1999/xlink" version="1.1" style="" xml:space="preserve" width="403.55172259997505" height="405.27586058062116"><rect id="backgroundrect" width="100%" height="100%" x="0" y="0" fill="none" stroke="none" class="" style=""/>






















<g class="currentLayer" style=""><title>Layer 1</title><g class="" id="svg_43" transform="rotate(45 -0.03402709960937502,-0.03402709960937499) "><g id="svg_1" class="">
	<path style="fill:#F25B22;" d="M86.66851895141599,-74.30948867797852 v55.908 h-47.709 c-4.286,-9.007 -11.616,-16.338 -20.624,-20.624 v-47.709 h55.909 C81.07751895141604,-86.73348867797853 86.66851895141599,-81.14248867797852 86.66851895141599,-74.30948867797852 z" id="svg_2"/>
	<path style="fill:#F25B22;" d="M86.66851895141599,18.870511322021457 v55.909 c0,6.833 -5.591,12.424 -12.424,12.424 h-55.909 v-47.709 c9.007,-4.286 16.338,-11.616 20.624,-20.624 H86.66851895141599 z" id="svg_3"/>
	<path style="fill:#F25B22;" d="M-87.26748104858399,74.7795113220215 v-55.908 h47.709 c4.286,9.007 11.616,16.338 20.624,20.624 v47.709 h-55.908 C-81.67648104858398,87.20351132202148 -87.26748104858399,81.61251132202148 -87.26748104858399,74.7795113220215 z" id="svg_4"/>
	<path style="fill:#F25B22;" d="M-87.26748104858399,-18.401488677978506 v-55.908 c0,-6.833 5.591,-12.424 12.424,-12.424 H-18.93448104858399 v47.709 c-9.007,4.286 -16.338,11.616 -20.624,20.624 L-87.26748104858399,-18.401488677978506 L-87.26748104858399,-18.401488677978506 z" id="svg_5"/>
</g><g id="svg_6" class="">
	<path style="fill:#E7ECED;" d="M204.696518951416,0.23451132202148983 c0,10.312 -8.324,18.636 -18.636,18.636 c-10.312,0 -18.636,-8.324 -18.636,-18.636 c0,-10.312 8.324,-18.636 18.636,-18.636 C196.372518951416,-18.401488677978506 204.696518951416,-10.076488677978517 204.696518951416,0.23451132202148983 z" id="svg_7"/>
	<path style="fill:#E7ECED;" d="M-0.29948104858397073,-167.4894886779785 c-10.312,0 -18.636,-8.324 -18.636,-18.636 s8.324,-18.636 18.636,-18.636 c10.312,0 18.636,8.324 18.636,18.636 C18.336518951415997,-175.81248867797854 10.012518951416041,-167.4894886779785 -0.29948104858397073,-167.4894886779785 z" id="svg_8"/>
	<path style="fill:#E7ECED;" d="M-0.29948104858397073,205.23051132202147 c-10.312,0 -18.636,-8.324 -18.636,-18.636 c0,-10.312 8.324,-18.636 18.636,-18.636 c10.312,0 18.636,8.324 18.636,18.636 C18.336518951415997,196.90651132202146 10.012518951416041,205.23051132202147 -0.29948104858397073,205.23051132202147 z" id="svg_9"/>
</g><path style="fill:#9DA1A4;" d="M186.06051895141604,-61.885488677978515 c-27.829,0 -51.373,18.263 -59.262,43.484 h-40.129 h-47.709 c-4.286,-9.007 -11.616,-16.338 -20.624,-20.624 v-47.709 v-40.129 c25.22,-7.889 43.484,-31.433 43.484,-59.262 c0,-34.291 -27.829,-62.12 -62.12,-62.12 s-62.12,27.829 -62.12,62.12 c0,27.829 18.264,51.373 43.484,59.262 v40.129 v47.709 c-9.007,4.286 -16.338,11.616 -20.624,20.624 h-47.709 h-40.129 c-7.889,-25.22 -31.433,-43.484 -59.262,-43.484 c-34.291,0 -62.12,27.829 -62.12,62.12 c0,34.29 27.829,62.12 62.12,62.12 c27.829,0 51.373,-18.264 59.262,-43.484 h40.129 h47.709 c4.286,9.007 11.616,16.338 20.624,20.624 v47.709 v40.129 c-25.22,7.889 -43.484,31.433 -43.484,59.262 c0,34.29 27.829,62.12 62.12,62.12 s62.12,-27.83 62.12,-62.12 c0,-27.83 -18.264,-51.373 -43.484,-59.262 v-40.129 v-47.709 c9.007,-4.286 16.338,-11.616 20.624,-20.624 h47.709 h40.129 c7.889,25.22 31.433,43.484 59.262,43.484 c34.291,0 62.12,-27.83 62.12,-62.12 C248.180518951416,-34.0554886779785 220.35151895141604,-61.885488677978515 186.06051895141604,-61.885488677978515 zM-186.660481048584,18.870511322021457 c-10.312,0 -18.636,-8.324 -18.636,-18.636 c0,-10.313 8.324,-18.636 18.636,-18.636 s18.636,8.324 18.636,18.636 C-168.023481048584,10.546511322021502 -176.34748104858397,18.870511322021457 -186.660481048584,18.870511322021457 zM-0.29948104858397073,205.23051132202147 c-10.312,0 -18.636,-8.324 -18.636,-18.636 c0,-10.313 8.324,-18.636 18.636,-18.636 c10.312,0 18.636,8.324 18.636,18.636 C18.336518951415997,196.90651132202146 10.011518951416008,205.23051132202147 -0.29948104858397073,205.23051132202147 zM-0.29948104858397073,-167.4894886779785 c-10.312,0 -18.636,-8.324 -18.636,-18.636 c0,-10.313 8.324,-18.636 18.636,-18.636 c10.312,0 18.636,8.324 18.636,18.636 C18.336518951415997,-175.81448867797852 10.011518951416008,-167.4894886779785 -0.29948104858397073,-167.4894886779785 zM186.06051895141604,18.870511322021457 c-10.312,0 -18.636,-8.324 -18.636,-18.636 c0,-10.313 8.324,-18.636 18.636,-18.636 c10.312,0 18.636,8.324 18.636,18.636 C204.696518951416,10.546511322021502 196.372518951416,18.870511322021457 186.06051895141604,18.870511322021457 z" id="svg_10" class=""/><path style="fill:#E7ECED;" d="M-186.660481048584,-18.401488677978506 c10.312,0 18.636,8.324 18.636,18.636 c0,10.312 -8.324,18.636 -18.636,18.636 s-18.636,-8.324 -18.636,-18.636 C-205.29548104858398,-10.076488677978517 -196.971481048584,-18.401488677978506 -186.660481048584,-18.401488677978506 z" id="svg_11" class=""/><g id="svg_12" class="">
	<path style="fill:#EF3E25;" d="M-49.995481048584,74.7795113220215 v-55.908 h-37.272 v55.909 c0,6.833 5.591,12.424 12.424,12.424 h37.272 C-44.40448104858399,87.20351132202148 -49.995481048584,81.61251132202148 -49.995481048584,74.7795113220215 z" id="svg_13"/>
	<path style="fill:#EF3E25;" d="M-37.57148104858399,-86.73348867797853 h-37.272 c-6.833,0 -12.424,5.591 -12.424,12.424 v55.908 h37.272 v-55.908 C-49.995481048584,-81.14248867797852 -44.40448104858399,-86.73348867797853 -37.57148104858399,-86.73348867797853 z" id="svg_14"/>
</g><g id="svg_15" class="">
	<path style="fill:#231F20;" d="M186.32751895141604,-69.6744886779785 c-28.732,0 -54.014,17.257 -64.559,43.484 H94.45551895141602 v-48.387 c0,-10.997 -8.947,-19.944 -19.944,-19.944 h-48.388 V-121.83448867797853 c26.226,-10.544 43.484,-35.827 43.484,-64.559 C69.60751895141601,-224.79348867797853 38.36551895141599,-256.0344886779785 -0.034481048583984375,-256.0344886779785 s-69.64,31.241 -69.64,69.64 c0,28.731 17.257,54.014 43.484,64.559 v27.313 h-11.117 v15.04 h11.117 v35.697 c-7.208,4.323 -13.271,10.386 -17.594,17.594 h-35.697 v-48.387 c0,-2.6580000000000004 2.246,-4.904 4.904,-4.904 h18.636 v-15.04 h-18.636 c-10.997,0 -19.944,8.947 -19.944,19.944 v48.387 H-121.834481048584 c-10.544,-26.226 -35.827,-43.484 -64.559,-43.484 c-38.4,0.0010000000000000005 -69.64,31.242 -69.64,69.641 s31.241,69.64 69.64,69.64 c28.732,0 54.014,-17.257 64.559,-43.484 h27.313 v48.388 c0,10.997 8.947,19.944 19.944,19.944 h48.388 v27.314 c-26.226,10.544 -43.484,35.828 -43.484,64.559 c0,38.4 31.241,69.64 69.64,69.64 s69.64,-31.241 69.64,-69.64 c0,-28.731 -17.257,-54.014 -43.484,-64.559 v-27.314 h48.388 c10.997,0 19.944,-8.947 19.944,-19.944 v-18.636 h-15.04 v18.636 c0,2.6580000000000004 -2.246,4.904 -4.904,4.904 h-48.388 v-35.697 c7.208,-4.323 13.271,-10.386 17.594,-17.594 h35.697 v11.116 h15.04 v-11.116 h27.313 c10.544,26.226 35.827,43.484 64.559,43.484 c38.4,0 69.64,-31.241 69.64,-69.64 C255.966518951416,-38.43348867797852 224.72651895141604,-69.6744886779785 186.32751895141604,-69.6744886779785 zM74.51151895141601,-79.48248867797852 c2.6580000000000004,0 4.904,2.246 4.904,4.904 v48.387 h-35.697 c-4.323,-7.208 -10.386,-13.271 -17.594,-17.594 v-35.697 H74.51151895141601 zM-74.57748104858399,79.41351132202146 c-2.6580000000000004,0 -4.904,-2.246 -4.904,-4.904 v-48.388 h35.697 c4.323,7.208 10.386,13.271 17.594,17.594 v35.697 h-48.387 V79.41351132202146 zM186.32751895141604,54.56551132202151 c-24.005,0 -44.937,-15.355 -52.086,-38.209 l-1.649,-5.275 h-98.114 l-2.041,4.288 c-3.548,7.457 -9.608,13.516 -17.065,17.065 l-4.288,2.041 v98.114 l5.275,1.6500000000000004 c22.854,7.149 38.209,28.081 38.209,52.086 c0,30.107 -24.493,54.6 -54.6,54.6 c-30.106,0 -54.6,-24.493 -54.6,-54.6 c0,-24.005 15.355,-44.936 38.209,-52.086 l5.275,-1.6500000000000004 v-98.114 l-4.288,-2.041 c-7.456,-3.548 -13.516,-9.609 -17.065,-17.065 l-2.041,-4.288 h-98.114 l-1.6500000000000004,5.275 c-7.148,22.854 -28.08,38.209 -52.085,38.209 c-30.107,0 -54.6,-24.493 -54.6,-54.6 c0,-30.106 24.493,-54.6 54.6,-54.6 c24.005,0 44.937,15.355 52.085,38.209 l1.6500000000000004,5.275 h98.114 l2.041,-4.288 c3.548,-7.456 9.609,-13.516 17.065,-17.065 l4.288,-2.041 v-98.114 l-5.275,-1.6500000000000004 c-22.854,-7.149 -38.209,-28.08 -38.209,-52.085 c0,-30.107 24.493,-54.6 54.599,-54.6 s54.6,24.493 54.6,54.6 c0,24.005 -15.355,44.936 -38.209,52.085 l-5.275,1.6500000000000004 v98.114 l4.288,2.041 c7.457,3.548 13.516,9.609 17.065,17.065 l2.041,4.288 h98.114 l1.649,-5.275 c7.149,-22.854 28.081,-38.209 52.086,-38.209 c30.107,0 54.6,24.493 54.6,54.6 C240.92651895141603,30.072511322021512 216.43351895141603,54.56551132202151 186.32751895141604,54.56551132202151 z" id="svg_16"/>
	<path style="fill:#231F20;" d="M26.122518951415998,-186.39448867797853 c0,-14.423 -11.733,-26.156 -26.156,-26.156 c-14.423,0 -26.156,11.733 -26.156,26.156 s11.733,26.156 26.156,26.156 C14.389518951415994,-160.23848867797852 26.122518951415998,-171.97148867797853 26.122518951415998,-186.39448867797853 zM-11.148481048583989,-186.39448867797853 c0,-6.129 4.986,-11.116 11.116,-11.116 c6.129,0 11.116,4.986 11.116,11.116 s-4.986,11.116 -11.116,11.116 S-11.148481048583989,-180.26448867797853 -11.148481048583989,-186.39448867797853 z" id="svg_17"/>
	<path style="fill:#231F20;" d="M186.32751895141604,-26.19048867797852 c-14.423,0 -26.156,11.733 -26.156,26.157 c0,14.423 11.733,26.156 26.156,26.156 c14.423,0 26.156,-11.733 26.156,-26.156 C212.483518951416,-14.456488677978513 200.749518951416,-26.19048867797852 186.32751895141604,-26.19048867797852 zM186.32751895141604,11.08151132202147 c-6.129,0 -11.116,-4.986 -11.116,-11.116 s4.986,-11.117 11.116,-11.117 s11.116,4.986 11.116,11.117 C197.44351895141602,6.09551132202148 192.456518951416,11.08151132202147 186.32751895141604,11.08151132202147 z" id="svg_18"/>
	<path style="fill:#231F20;" d="M-186.39348104858396,-26.19048867797852 c-14.423,0 -26.156,11.733 -26.156,26.157 c0,14.423 11.733,26.156 26.156,26.156 s26.156,-11.733 26.156,-26.156 C-160.237481048584,-14.456488677978513 -171.970481048584,-26.19048867797852 -186.39348104858396,-26.19048867797852 zM-186.39348104858396,11.08151132202147 c-6.129,0 -11.116,-4.986 -11.116,-11.116 s4.986,-11.117 11.116,-11.117 s11.116,4.986 11.116,11.117 C-175.27748104858398,6.09551132202148 -180.26348104858397,11.08151132202147 -186.39348104858396,11.08151132202147 z" id="svg_19"/>
	<path style="fill:#231F20;" d="M-26.18848104858398,186.32651132202147 c0,14.423 11.733,26.156 26.156,26.156 c14.423,0 26.156,-11.733 26.156,-26.156 c0,-14.423 -11.733,-26.157 -26.156,-26.157 C-14.455481048583977,160.1695113220215 -26.18848104858398,171.9025113220215 -26.18848104858398,186.32651132202147 zM11.082518951416034,186.32651132202147 c0,6.129 -4.986,11.116 -11.116,11.116 s-11.116,-4.986 -11.116,-11.116 s4.986,-11.117 11.116,-11.117 C6.096518951415987,175.2095113220215 11.082518951416034,180.1955113220215 11.082518951416034,186.32651132202147 z" id="svg_20"/>
	<rect x="-68.36147689819336" y="-69.67648696899414" style="fill:#231F20;" width="12.423999786376953" height="15.039999961853027" id="svg_21"/>
	<rect x="-68.36147689819336" y="-51.0364875793457" style="fill:#231F20;" width="12.423999786376953" height="15.039999961853027" id="svg_22"/>
	<rect x="55.87051773071289" y="54.56551742553711" style="fill:#231F20;" width="12.423999786376953" height="15.039999961853027" id="svg_23"/>
	<rect x="55.87051773071289" y="35.926509857177734" style="fill:#231F20;" width="12.423999786376953" height="15.039999961853027" id="svg_24"/>
</g><g id="svg_25" class="">
	<rect x="-68.36147689819336" y="54.56551742553711" style="fill:#FFFFFF;" width="12.423999786376953" height="15.039999961853027" id="svg_26"/>
	<rect x="55.87051773071289" y="-69.67648696899414" style="fill:#FFFFFF;" width="12.423999786376953" height="15.039999961853027" id="svg_27"/>
</g><g id="svg_28" class="">
</g><g id="svg_29" class="">
</g><g id="svg_30" class="">
</g><g id="svg_31" class="">
</g><g id="svg_32" class="">
</g><g id="svg_33" class="">
</g><g id="svg_34" class="">
</g><g id="svg_35" class="">
</g><g id="svg_36" class="">
</g><g id="svg_37" class="">
</g><g id="svg_38" class="">
</g><g id="svg_39" class="">
</g><g id="svg_40" class="">
</g><g id="svg_41" class="">
</g><g id="svg_42" class="">
</g></g></g></svg>