<svg xmlns="http://www.w3.org/2000/svg" xmlns:xlink="http://www.w3.org/1999/xlink" version="1.1" width="28" height="38" enable-background="new 0 0 512 512" xml:space="preserve"><rect id="backgroundrect" width="100%" height="100%" x="0" y="0" fill="none" stroke="none" class="" style=""/>

<g class="currentLayer" style=""><title>Layer 1</title><path d="M14.153463363647461,0 C6.3372869370281695,0 0,6.3372869370281695 0,14.153463363647461 c0,3.183644665360451 1.05045235902071,6.118424266576767 2.8242793846428396,8.484264126956463 L14.153463363647461,37.74256896972656 l11.32925769495964,-15.104841479122639 C27.256474368274212,20.271887630224228 28.306926727294922,17.33710802900791 28.306926727294922,14.153463363647461 C28.306926727294922,6.3372869370281695 21.969639790266754,0 14.153463363647461,0 zM14.153463363647461,23.5891056060791 c-5.210833428382874,0 -9.43564224243164,-4.224882530003787 -9.43564224243164,-9.43564224243164 S8.942703651219606,4.71782112121582 14.153463363647461,4.71782112121582 s9.43564224243164,4.224882530003787 9.43564224243164,9.43564224243164 S19.364296792030334,23.5891056060791 14.153463363647461,23.5891056060791 z" id="svg_1" class="" fill="#009900" fill-opacity="1"/><path fill="#ffffff" fill-opacity="1" stroke="none" stroke-opacity="1" stroke-width="1" stroke-dasharray="none" stroke-linejoin="miter" stroke-linecap="butt" stroke-dashoffset="" fill-rule="nonzero" opacity="1" marker-start="" marker-mid="" marker-end="" d="M3.134328305721283,14.320894926786423 C3.134328305721283,8.025026419380094 8.13713200678483,2.925372928380966 14.31343287229538,2.925372928380966 C20.489733737805928,2.925372928380966 25.492537438869476,8.025026419380094 25.492537438869476,14.320894926786423 C25.492537438869476,20.61676343419275 20.489733737805928,25.71641692519188 14.31343287229538,25.71641692519188 C8.13713200678483,25.71641692519188 3.134328305721283,20.61676343419275 3.134328305721283,14.320894926786423 z" id="svg_2" class=""/></g></svg>