<svg xmlns="http://www.w3.org/2000/svg" data-name="Layer 1" width="64" height="64" style=""><rect id="backgroundrect" width="64" height="64" x="0" y="0" fill="none" stroke="none"/><defs><style>.cls-1{fill:#c8754b;}.cls-2{fill:#f27d3b;}.cls-3{fill:gray;}.cls-4{fill:#3f3f40;}.cls-5{fill:#cbcbca;}.cls-6{opacity:0.1;}</style></defs><title>drone</title><g class="currentLayer" style=""><title>Layer 1</title><g class=""><path class="cls-1" d="M-11.569346101284026,28.31810144066811 l27.34,-4.17 c0.3700000000000003,-0.06000000000000005 0.6700000000000008,-0.9 0.6700000000000008,-1.8800000000000003 v-2 c0,-1 -0.30000000000000027,-1.83 -0.6700000000000008,-1.8900000000000001 L-11.569346101284026,14.168101440668103 A4,4 0 0 0 -16.099346101284027,18.438101440668106 v5.66 A4,4 0 0 0 -11.569346101284026,28.31810144066811 z" id="svg_1" transform="rotate(90.0199966430664 0.16475874185562048,21.24285888671875) "/><path class="cls-1" d="M10.830006544589999,-29.2369773709774 L-16.509993455410005,-25.0469773709774 c-0.3700000000000003,0.05000000000000005 -0.6700000000000008,0.9 -0.6700000000000008,1.8800000000000003 v2 c0,1 0.30000000000000027,1.83 0.6700000000000008,1.8800000000000003 L10.830006544589999,-15.046977370977402 a4,4 0 0 0 4.5,-4.24 V-24.996977370977405 A4,4 0 0 0 10.830006544589999,-29.2369773709774 z" id="svg_2" transform="rotate(90.0199966430664 -0.9203433394432078,-22.141979217529297) "/><path class="cls-1" d="M-14.863245103359219,-12.259312804937366 L-19.03324510335922,15.080687195062637 c-0.05000000000000005,0.3700000000000003 -0.9,0.6700000000000008 -1.8800000000000003,0.6700000000000008 h-2 c-1,0 -1.83,-0.30000000000000027 -1.8900000000000001,-0.6700000000000008 L-29.00324510335922,-12.259312804937366 a4,4 0 0 1 4.24,-4.5 h5.66 A4,4 0 0 1 -14.863245103359219,-12.259312804937366 z" id="svg_3" transform="rotate(90.0199966430664 -21.933244705200195,-0.5089617967605585) "/><path class="cls-1" d="M14.757205717563629,11.966656280755998 l4.17,-27.34 c0,-0.3700000000000003 0.9,-0.6700000000000008 1.8800000000000003,-0.6700000000000008 h2 c1,0 1.83,0.30000000000000027 1.8800000000000003,0.6700000000000008 l4.17,27.34 a4,4 0 0 1 -4.24,4.5 H18.99720571756363 A4,4 0 0 1 14.757205717563629,11.966656280755998 z" id="svg_4" transform="rotate(90.0199966430664 21.807205200195312,0.21630561351775937) "/><circle class="cls-2" cx="0.30356794595718384" cy="38.28880310058594" r="7.719999313354492" id="svg_5" transform="rotate(90.0199966430664 0.30356794595718317,38.28879928588867) "/><circle class="cls-2" cx="38.32682800292969" cy="0.292065292596817" r="7.719998359680176" id="svg_6" transform="rotate(90.0199966430664 38.32682418823242,0.2920693159103329) "/><circle class="cls-2" cx="-38.302955627441406" cy="-0.3346761167049408" r="7.719999313354492" id="svg_7" transform="rotate(90.0199966430664 -38.302959442138665,-0.3346740007400547) "/><circle class="cls-2" cx="-0.27969449758529663" cy="-38.33140182495117" r="7.719999313354492" id="svg_8" transform="rotate(90.0199966430664 -0.27969163656234225,-38.33140182495118) "/><circle class="cls-3" cx="38.55680847167969" cy="0.3521505892276764" r="4.129999160766602" id="svg_9" transform="rotate(90.0199966430664 38.55680465698242,0.35215079784393477) "/><circle class="cls-3" cx="0.4635182023048401" cy="38.428855895996094" r="4.129999160766602" id="svg_10" transform="rotate(90.0199966430664 0.4635182023048372,38.42885208129883) "/><circle class="cls-3" cx="-0.1996554732322693" cy="-38.43137741088867" r="4.130000114440918" id="svg_11" transform="rotate(90.0199966430664 -0.19965547323227217,-38.43138122558594) "/><circle class="cls-3" cx="-38.302940368652344" cy="-0.3646748960018158" r="4.129999160766602" id="svg_12" transform="rotate(90.0199966430664 -38.30294418334961,-0.36467659473419356) "/><path class="cls-2" d="M11.613767334818839,12.559631682634354 c-6.67,4.82 -20.77,11.43 -26.69,5.77 l-0.11000000000000007,-0.11000000000000007 c-5.63,-5.63 0.8700000000000006,-19.92 5.67,-26.8 C-6.78623266518116,-12.460368317365651 -3.03623266518116,-17.870368317365646 3.723767334818838,-18.860368317365648 A15.74,15.74 0 0 1 17.283767334818833,-14.260368317365646 c0.3400000000000004,0.36000000000000026 0.6500000000000007,0.7300000000000005 0.9400000000000005,1.1 c4.52,5.86 2.83,13.09 2.5700000000000003,14.11 C19.29376733481884,6.89963168263435 14.96376733481884,10.139631682634352 11.613767334818839,12.559631682634354 z" id="svg_13" transform="rotate(90.0199966430664 1.9753432273864744,0.7409594058990479) "/><path class="cls-4" d="M37.87339628458023,12.515279785394668 C37.12339628458023,11.155279785394669 31.05339628458023,0.06527978539466517 28.643396284580234,-0.38472021460533035 a2.18,2.18 0 0 0 -1.6,0.22000000000000014 a2.26,2.26 0 0 0 -0.7200000000000005,1.6400000000000001 C26.113396284580233,3.9352797853946697 36.34339628458023,11.41527978539467 37.87339628458023,12.515279785394668 z" id="svg_14" transform="rotate(90.0199966430664 32.09680175781251,6.03330326080322) "/><path class="cls-4" d="M38.70074644327164,-11.763043731451035 c1.31,0.8500000000000005 11.89,7.8 12.15,10.19 a2.14,2.14 0 0 1 -0.35000000000000026,1.58 a2.22,2.22 0 0 1 -1.6800000000000006,0.6000000000000005 C46.36074644327164,0.6269562685489662 39.68074644327164,-10.163043731451033 38.70074644327164,-11.763043731451035 z" id="svg_15" transform="rotate(90.0199966430664 44.79112243652344,-5.5752935409545925) "/><circle class="cls-5" cx="38.52680969238281" cy="0.3521400988101959" r="2.059999465942383" id="svg_16" transform="rotate(90.0199966430664 38.52680587768555,0.35213935375213457) "/><path class="cls-4" d="M-3.9762294173240633,49.16023309350014 c-0.27,-1.54 -2.54,-14 -4.6400000000000015,-15.16 A2.19,2.19 0 0 0 -10.176229417324066,33.74023309350014 a2.25,2.25 0 0 0 -1.2,1.32 C-12.396229417324065,37.290233093500134 -5.066229417324067,47.63023309350014 -3.9762294173240633,49.16023309350014 z" id="svg_17" transform="rotate(90.0199966430664 -7.724763870239261,41.42746353149415) "/><path class="cls-4" d="M4.345041334629059,27.585991455316545 c1,1.22 8.79,11.17 8.28,13.52 a2.12,2.12 0 0 1 -0.8300000000000005,1.3900000000000001 a2.23,2.23 0 0 1 -1.78,0 C7.655041334629061,41.75599145531655 4.7650413346290605,29.415991455316544 4.345041334629059,27.585991455316545 z" id="svg_18" transform="rotate(90.0199966430664 8.497018814086918,35.13364028930663) "/><circle class="cls-5" cx="0.42352110147476196" cy="38.41884994506836" r="2.059999465942383" id="svg_19" transform="rotate(90.0199966430664 0.42352110147475863,38.418846130371094) "/><path class="cls-4" d="M5.692651808261871,-48.15255392432213 c0,1.56 0.4400000000000003,14.21 2.35,15.68 a2.15,2.15 0 0 0 1.53,0.54 a2.24,2.24 0 0 0 1.3800000000000001,-1.13 C12.262651808261872,-35.162553924322125 6.542651808261873,-46.47255392432213 5.692651808261871,-48.15255392432213 z" id="svg_20" transform="rotate(90.0199966430664 8.419687271118166,-40.04133605957031) "/><path class="cls-4" d="M-5.637221162319179,-28.565470336675645 c-0.77,-1.35 -7,-12.35 -6.18,-14.59 a2.15,2.15 0 0 1 1,-1.26 a2.27,2.27 0 0 1 1.77,0.24000000000000013 C-6.8072211623191805,-43.065470336675645 -5.777221162319179,-30.43547033667565 -5.637221162319179,-28.565470336675645 z" id="svg_21" transform="rotate(90.0199966430664 -8.764324188232424,-36.53146743774414) "/><circle class="cls-5" cx="-0.17964547872543335" cy="-38.441375732421875" r="2.059999465942383" id="svg_22" transform="rotate(90.0199966430664 -0.17965120077133276,-38.44137954711914) "/><path class="cls-4" d="M-36.81133409261704,12.074835449457169 c-1,-1.22 -8.93,-11.06 -11.34,-11.09 a2.16,2.16 0 0 0 -1.54,0.5 a2.26,2.26 0 0 0 -0.42000000000000026,1.7400000000000002 C-49.891334092617036,5.684835449457168 -38.511334092617034,11.254835449457175 -36.81133409261704,12.074835449457169 z" id="svg_23" transform="rotate(90.0199966430664 -43.47768783569336,6.527169227600102) "/><path class="cls-4" d="M-40.298996217250824,-12.630659545660023 c1.44,0.6200000000000006 13.07,5.6 13.74,7.91 a2.14,2.14 0 0 1 -0.06000000000000005,1.62 a2.27,2.27 0 0 1 -1.55,0.8800000000000006 C-30.608996217250827,-1.7606595456600191 -39.048996217250824,-11.220659545660016 -40.298996217250824,-12.630659545660023 z" id="svg_24" transform="rotate(90.0199966430664 -33.36359786987305,-7.417548179626466) "/><circle class="cls-5" cx="-38.31295394897461" cy="-0.34468206763267517" r="2.059999465942383" id="svg_25" transform="rotate(90.0199966430664 -38.312957763671875,-0.34467995166778764) "/><g class="cls-6" id="svg_26" transform="rotate(90.0199966430664 -0.9678313136100772,1.8851217031478886) "><path class="cls-4" d="M7.525403702259062,10.761019125282765 c-6.67,4.82 -20.77,11.43 -26.69,5.77 c11,-3 22.49,-7.38 29,-18.76 A35.22,35.22 0 0 0 14.00540370225906,-14.858980874717233 l0.13,-0.08000000000000007 c4.52,5.86 2.83,13.09 2.5700000000000003,14.11 C15.205403702259062,5.101019125282761 10.875403702259064,8.341019125282763 7.525403702259062,10.761019125282765 z" id="svg_27"/></g><path class="cls-4" d="M-10.627489129304884,-15.94141897559166 c1.08,0.16000000000000017 -0.6600000000000008,6.43 3.09,10 s9.45,1.55 9.6,2.49 c0.22000000000000014,1.31 -10.82,7.88 -15.65,3 S-12.067489129304889,-16.171418975591656 -10.627489129304884,-15.94141897559166 z" id="svg_28" transform="rotate(90.0199966430664 -6.652900218963623,-7.309039115905763) "/></g></g></svg>